<svg width="422" height="468" viewBox="0 0 422 468" fill="none" xmlns="http://www.w3.org/2000/svg">
<g clip-path="url(#clip0_41_15)">
<path d="M203.846 117.12L264.649 251.347L348.129 192.421L348.356 432.814L279.16 286.779L195.678 345.691L203.846 117.12ZM189.726 97.222C189.176 97.6131 188.64 98.0235 188.128 98.4468C184.733 101.287 183.183 104.155 181.674 108.019C180.818 110.186 180.27 112.455 180.046 114.759C179.979 115.45 179.945 116.144 179.944 116.837L170.593 345.471C170.371 354.707 175.367 363.137 183.56 367.327C191.747 371.521 201.738 370.765 209.444 365.371L268.559 323.981L325.646 443.456C330.384 453.843 341.851 459.403 353.246 456.826C356.561 456.082 359.704 454.678 362.482 452.701C368.886 448.149 372.07 441.485 372.266 433.399L372.991 192.328C373.212 183.092 368.205 174.655 360.024 170.472C351.837 166.278 341.846 167.034 334.14 172.429L275.252 214.137L227.09 107.64C226.389 105.834 225.468 104.124 224.345 102.548C216.698 91.7895 201.687 89.2584 190.456 96.7172C190.205 96.8808 189.965 97.0512 189.726 97.2212L189.726 97.222Z" fill="#D7FA52" fill-opacity="0.5"/>
</g>
<defs>
<clipPath id="clip0_41_15">
<rect width="400" height="390.384" fill="white" transform="translate(0 231.741) rotate(-35.4051)"/>
</clipPath>
</defs>
</svg>
