<!-- <svg width="300" height="340" viewBox="0 0 300 340" fill="none" xmlns="http://www.w3.org/2000/svg">
<path d="M37.1111 0.000365578C23.2444 0.000365578 11 9.30786 8.44445 22.6953C5.15556 40.0778 0 71.0178 0 95.6253C0 121.784 14.1333 144.776 35.4444 158.015C41.4667 161.776 44.4444 166.621 44.4444 170.765V179.478C44.4444 179.86 44.4222 180.243 44.3778 180.625C43.7778 186.15 41.0222 210.991 38.4222 236.534C35.8667 261.715 33.3333 288.596 33.3333 297.5C33.3333 308.772 38.0159 319.582 46.3508 327.552C54.6858 335.522 65.9904 340 77.7778 340C89.5652 340 100.87 335.522 109.205 327.552C117.54 319.582 122.222 308.772 122.222 297.5C122.222 288.575 119.689 261.715 117.133 236.534C115.233 217.896 113.248 199.267 111.178 180.646L111.111 179.478V170.765C111.111 166.6 114.089 161.755 120.111 158.015C130.99 151.266 139.931 142.022 146.122 131.126C152.312 120.229 155.555 108.026 155.556 95.6253C155.556 71.0178 150.4 40.0778 147.111 22.6953C145.876 16.2979 142.327 10.5194 137.087 6.37061C131.847 2.22186 125.248 -0.0330249 118.444 0.000365578C110.889 0.000365578 104 2.69911 98.8 7.14036C92.8582 2.52213 85.4348 0.00085061 77.7778 0.000365578C69.8 0.000365578 62.4889 2.67786 56.7556 7.14036C51.36 2.52691 44.349 -0.0161054 37.1111 0.000365578ZM66.6667 31.8753C66.6667 29.0574 67.8373 26.3549 69.921 24.3623C72.0048 22.3698 74.8309 21.2503 77.7778 21.2503C80.7246 21.2503 83.5508 22.3698 85.6345 24.3623C87.7183 26.3549 88.8889 29.0574 88.8889 31.8753V95.6253C88.8889 98.4432 90.0595 101.146 92.1433 103.138C94.227 105.131 97.0531 106.25 100 106.25C102.947 106.25 105.773 105.131 107.857 103.138C109.94 101.146 111.111 98.4432 111.111 95.6253V28.2628C111.111 27.3419 111.301 26.4301 111.669 25.5793C112.038 24.7285 112.578 23.9554 113.259 23.3043C113.94 22.6531 114.748 22.1365 115.638 21.7841C116.528 21.4317 117.481 21.2503 118.444 21.2503C121.933 21.2503 124.667 23.5453 125.244 26.4991C128.511 43.7753 133.333 73.079 133.333 95.6253C133.334 104.487 131.017 113.209 126.592 120.995C122.168 128.782 115.776 135.387 108 140.208C98.2444 146.264 88.8889 156.91 88.8889 170.765V179.478C88.8889 180.611 88.9481 181.744 89.0667 182.878C89.6889 188.36 92.4222 213.138 95.0222 238.595C97.6444 264.414 100 289.914 100 297.5C100 303.136 97.6587 308.541 93.4913 312.526C89.3238 316.511 83.6715 318.75 77.7778 318.75C71.8841 318.75 66.2318 316.511 62.0643 312.526C57.8968 308.541 55.5556 303.136 55.5556 297.5C55.5556 289.914 57.9111 264.414 60.5333 238.595C63.1333 213.138 65.8667 188.36 66.4889 182.878C66.6074 181.744 66.6667 180.611 66.6667 179.478V170.765C66.6667 156.91 57.3111 146.264 47.5556 140.208C39.7793 135.387 33.3879 128.782 28.9632 120.995C24.5385 113.209 22.2212 104.487 22.2222 95.6253C22.2222 73.1003 27.0444 43.7753 30.3111 26.4991C30.6155 24.994 31.4679 23.6408 32.7169 22.6799C33.9659 21.7189 35.5307 21.2124 37.1333 21.2503C39.0744 21.256 40.934 21.9973 42.3044 23.3117C43.6749 24.6262 44.4445 26.4067 44.4444 28.2628V95.6253C44.4444 98.4432 45.6151 101.146 47.6988 103.138C49.7826 105.131 52.6087 106.25 55.5556 106.25C58.5024 106.25 61.3286 105.131 63.4123 103.138C65.496 101.146 66.6667 98.4432 66.6667 95.6253V31.8753ZM177.778 95.6253C177.778 70.264 188.313 45.9414 207.067 28.0082C225.821 10.0751 251.256 0.000365578 277.778 0.000365578C280.725 0.000365578 283.551 1.11978 285.635 3.11235C287.718 5.10493 288.889 7.80743 288.889 10.6254V158.908L289.333 163.668C291.065 182.761 292.754 201.858 294.4 220.958C297.156 252.981 300 288.129 300 297.5C300 308.772 295.317 319.582 286.983 327.552C278.648 335.522 267.343 340 255.556 340C243.768 340 232.464 335.522 224.129 327.552C215.794 319.582 211.111 308.772 211.111 297.5C211.111 288.15 213.956 252.981 216.711 220.958C218.089 204.786 219.489 189.146 220.533 177.565L221.2 170H211.111C202.271 170 193.792 166.642 187.541 160.664C181.29 154.687 177.778 146.579 177.778 138.125V95.6253ZM244.4 160.31L243.933 165.516L242.667 179.393C241.622 190.953 240.222 206.55 238.844 222.7C236.044 255.361 233.333 289.255 233.333 297.5C233.333 303.136 235.675 308.541 239.842 312.526C244.01 316.511 249.662 318.75 255.556 318.75C261.449 318.75 267.102 316.511 271.269 312.526C275.436 308.541 277.778 303.136 277.778 297.5C277.778 289.255 275.067 255.361 272.267 222.7C270.618 203.635 268.922 184.574 267.178 165.516L266.711 160.331V160.31L266.667 159.375V21.9941C248.152 24.5495 231.221 33.4001 218.977 46.9236C206.732 60.447 199.995 77.7374 200 95.6253V138.125C200 140.943 201.171 143.646 203.254 145.638C205.338 147.631 208.164 148.75 211.111 148.75H233.333C234.875 148.75 236.399 149.057 237.81 149.651C239.221 150.245 240.487 151.114 241.528 152.201C242.568 153.288 243.361 154.571 243.856 155.967C244.35 157.363 244.536 158.842 244.4 160.31Z" fill="#D7FA52" fill-opacity="0.5"/>
</svg> -->
<svg width="407" height="407" viewBox="0 0 407 407" fill="none" xmlns="http://www.w3.org/2000/svg">
<g clip-path="url(#clip0_35_17)">
<path d="M99.1397 164.401C88.1088 169.683 82.0003 181.932 85.1914 193.816C89.3581 209.234 97.3302 236.411 106.933 256.464C117.14 277.782 137.355 291.135 159.474 293.806C165.733 294.577 169.992 297.391 171.609 300.768L175.009 307.868C175.158 308.179 175.29 308.5 175.404 308.828C177.082 313.559 184.584 334.852 192.483 356.658C200.276 378.152 208.75 401.023 212.225 408.279C216.623 417.464 224.566 424.49 234.307 427.81C244.048 431.131 254.788 430.473 264.165 425.983C273.542 421.493 280.787 413.538 284.308 403.868C287.828 394.198 287.335 383.605 282.936 374.419C279.453 367.146 266.957 346.222 255.098 326.675C246.314 312.211 237.465 297.786 228.552 283.4L228.042 282.473L224.643 275.373C223.017 271.979 223.496 266.896 226.827 261.554C232.847 251.91 236.353 240.972 237.026 229.734C237.698 218.496 235.516 207.316 230.677 197.21C221.075 177.157 204.9 153.907 195.501 140.995C192.022 136.252 186.944 132.894 181.157 131.51C175.369 130.125 169.239 130.801 163.841 133.42C157.83 136.298 153.403 141.121 151 146.721C144.471 145.221 137.581 145.994 131.49 148.91C125.144 151.949 120.373 156.916 117.553 162.737C111.461 161.033 104.891 161.631 99.1397 164.401ZM135.089 179.119C133.99 176.822 133.867 174.174 134.747 171.756C135.627 169.339 137.438 167.35 139.782 166.228C142.127 165.105 144.812 164.941 147.247 165.771C149.682 166.601 151.668 168.357 152.767 170.654L177.644 222.605C178.743 224.901 180.729 226.658 183.164 227.488C185.6 228.318 188.285 228.153 190.629 227.031C192.973 225.908 194.784 223.92 195.664 221.502C196.545 219.084 196.421 216.436 195.322 214.14L169.035 159.245C168.676 158.494 168.471 157.679 168.432 156.845C168.393 156.012 168.522 155.176 168.809 154.386C169.097 153.596 169.538 152.867 170.109 152.241C170.679 151.615 171.367 151.104 172.133 150.737C174.908 149.408 177.978 150.237 179.59 152.424C188.93 165.258 204.201 187.302 212.999 205.675C216.458 212.896 218.018 220.886 217.537 228.917C217.056 236.948 214.548 244.765 210.244 251.656C204.846 260.308 201.558 272.547 206.965 283.838L210.365 290.938C210.807 291.861 211.296 292.762 211.833 293.641C214.467 297.872 226.31 317.022 238.313 336.777C250.474 356.819 262.298 376.702 265.258 382.884C267.457 387.477 267.704 392.773 265.944 397.609C264.184 402.444 260.561 406.421 255.873 408.666C251.184 410.911 245.814 411.24 240.944 409.58C236.073 407.92 232.102 404.407 229.903 399.814C226.942 393.632 218.866 371.954 210.877 349.915C203.011 328.179 195.517 306.946 193.872 302.241C193.524 301.272 193.129 300.326 192.687 299.403L189.287 292.303C183.881 281.012 172.284 275.9 162.16 274.681C154.093 273.714 146.431 270.767 139.873 266.106C133.314 261.446 128.068 255.222 124.61 247.999C115.821 229.643 108.214 203.909 104.071 188.586C103.725 187.243 103.876 185.816 104.494 184.557C105.113 183.298 106.16 182.289 107.45 181.71C108.996 180.975 110.764 180.871 112.368 181.42C113.971 181.969 115.278 183.127 116.002 184.64L142.288 239.535C143.388 241.831 145.374 243.587 147.809 244.417C150.244 245.247 152.929 245.083 155.273 243.961C157.617 242.838 159.429 240.849 160.309 238.432C161.189 236.014 161.066 233.366 159.966 231.07L135.089 179.119ZM248.355 188.745C238.459 168.078 237.349 144.243 245.269 122.486C253.19 100.728 269.492 82.8289 290.59 72.7262C292.935 71.6037 295.62 71.4394 298.055 72.2695C300.49 73.0995 302.476 74.8559 303.575 77.1523L361.438 197.991L363.649 201.7C372.478 216.6 381.273 231.519 390.035 246.457C404.724 271.504 420.702 299.063 424.359 306.7C428.757 315.885 429.25 326.478 425.73 336.149C422.21 345.819 414.964 353.774 405.587 358.264C396.21 362.754 385.47 363.411 375.73 360.091C365.989 356.771 358.046 349.745 353.647 340.56C349.999 332.94 338.538 303.197 328.234 276.05C323.019 262.347 318.03 249.069 314.342 239.233L311.92 232.814L303.894 236.657C296.862 240.025 288.807 240.518 281.501 238.028C274.196 235.538 268.238 230.268 264.939 223.379L248.355 188.745ZM326.594 216.08L328.255 220.501L332.662 232.291C336.342 242.11 341.315 255.354 346.521 269.039C357.038 296.722 368.108 325.376 371.325 332.095C373.524 336.687 377.496 340.2 382.366 341.86C387.237 343.52 392.607 343.192 397.295 340.947C401.984 338.702 405.606 334.724 407.367 329.889C409.127 325.054 408.88 319.758 406.681 315.165C403.463 308.446 388.081 281.858 373.108 256.308C364.357 241.4 355.57 226.512 346.746 211.646L344.351 207.599L344.343 207.582L343.943 206.837L290.334 94.8818C276.603 104.017 266.588 117.679 262.125 133.363C257.661 149.048 259.049 165.705 266.033 180.28L282.617 214.914C283.717 217.211 285.703 218.967 288.138 219.797C290.573 220.627 293.258 220.463 295.602 219.34L313.28 210.875C314.506 210.288 315.839 209.958 317.193 209.904C318.547 209.851 319.893 210.076 321.145 210.566C322.397 211.056 323.528 211.799 324.467 212.748C325.405 213.697 326.129 214.832 326.594 216.08Z" fill="#D7FA52" fill-opacity="0.5"/>
</g>
<defs>
<clipPath id="clip0_35_17">
<rect width="392" height="384" fill="white" transform="translate(0 169.298) rotate(-25.5872)"/>
</clipPath>
</defs>
</svg>


