<!-- <svg width="456" height="230" viewBox="0 0 456 230" fill="none" xmlns="http://www.w3.org/2000/svg">
<rect width="456" height="230" fill="#C7EA46"/>
<path d="M304.237 180.661C304.237 183.254 303.142 185.741 301.192 187.574C299.242 189.408 296.597 190.438 293.839 190.438H252.246C247.989 190.435 243.807 189.379 240.121 187.376C236.435 185.372 233.374 182.492 231.247 179.025C229.119 175.557 227.999 171.625 228 167.621C228.001 163.618 229.122 159.686 231.251 156.219L256.77 114.765L252.645 115.8C251.316 116.162 249.923 116.271 248.549 116.121C247.175 115.971 245.846 115.564 244.641 114.925C243.436 114.286 242.379 113.427 241.531 112.398C240.684 111.37 240.063 110.193 239.705 108.936C239.348 107.679 239.261 106.368 239.449 105.079C239.637 103.79 240.097 102.55 240.802 101.43C241.507 100.311 242.442 99.3345 243.553 98.5592C244.664 97.7838 245.929 97.2247 247.273 96.9147L275.668 89.7695C278.331 89.1 281.167 89.4515 283.554 90.747C285.94 92.0425 287.683 94.1759 288.397 96.6784L296.014 123.377C296.413 124.63 296.54 125.944 296.388 127.244C296.237 128.543 295.81 129.801 295.132 130.942C294.455 132.084 293.541 133.086 292.444 133.89C291.348 134.693 290.091 135.282 288.748 135.621C287.405 135.96 286.004 136.042 284.627 135.863C283.249 135.684 281.924 135.247 280.73 134.578C279.536 133.909 278.496 133.021 277.673 131.968C276.849 130.914 276.259 129.716 275.937 128.445L274.845 124.444L249.283 165.996C248.98 166.489 248.82 167.047 248.818 167.616C248.817 168.185 248.973 168.745 249.273 169.239C249.573 169.734 250.005 170.146 250.527 170.434C251.048 170.723 251.641 170.878 252.246 170.884H293.839C296.597 170.884 299.242 171.914 301.192 173.748C303.142 175.581 304.237 178.068 304.237 180.661ZM328.5 40.5272C329.11 40.5166 329.712 40.6627 330.24 40.9499C330.768 41.237 331.203 41.6542 331.498 42.1566L357.017 83.602L352.901 82.5673C351.565 82.1846 350.16 82.059 348.771 82.198C347.382 82.337 346.037 82.7378 344.816 83.3763C343.596 84.0149 342.524 84.8782 341.666 85.9147C340.808 86.9511 340.181 88.1395 339.822 89.4089C339.463 90.6783 339.38 92.0026 339.578 93.3029C339.776 94.6031 340.25 95.8526 340.972 96.9767C341.695 98.1008 342.651 99.0765 343.783 99.8455C344.916 100.615 346.201 101.161 347.563 101.453L375.959 108.614C378.622 109.284 381.458 108.932 383.845 107.637C386.231 106.341 387.974 104.208 388.688 101.705L396.262 74.9903C396.977 72.4838 396.603 69.8129 395.223 67.5654C393.844 65.3178 391.571 63.6776 388.905 63.0056C386.239 62.3336 383.399 62.6848 381.008 63.982C378.618 65.2792 376.873 67.4161 376.159 69.9227L375.023 73.8823L349.496 32.3799C347.364 28.9191 344.302 26.046 340.617 24.0487C336.932 22.0514 332.753 21 328.5 21C324.247 21 320.068 22.0514 316.383 24.0487C312.698 26.046 309.636 28.9191 307.504 32.3799L287.436 64.9691C286.7 66.082 286.209 67.3228 285.993 68.6176C285.777 69.9124 285.84 71.2348 286.179 72.5062C286.517 73.7776 287.124 74.972 287.963 76.0185C288.802 77.065 289.857 77.9421 291.064 78.5978C292.271 79.2534 293.606 79.6742 294.989 79.8351C296.372 79.996 297.776 79.8938 299.116 79.5345C300.457 79.1751 301.707 78.566 302.792 77.7434C303.877 76.9208 304.775 75.9014 305.433 74.7459L325.502 42.1566C325.797 41.6542 326.232 41.237 326.76 40.9499C327.288 40.6627 327.89 40.5166 328.5 40.5272ZM425.715 156.219L405.664 123.63C405.006 122.474 404.108 121.455 403.022 120.632C401.937 119.81 400.687 119.2 399.347 118.841C398.006 118.482 396.603 118.38 395.219 118.54C393.836 118.701 392.501 119.122 391.294 119.778C390.087 120.433 389.033 121.311 388.193 122.357C387.354 123.404 386.747 124.598 386.409 125.869C386.07 127.141 386.007 128.463 386.223 129.758C386.439 131.053 386.93 132.294 387.666 133.406L407.717 165.996C408.021 166.491 408.181 167.053 408.182 167.624C408.182 168.196 408.022 168.758 407.718 169.253C407.414 169.749 406.977 170.16 406.451 170.446C405.924 170.733 405.327 170.884 404.719 170.884H353.629L356.671 168.024C357.638 167.115 358.405 166.035 358.928 164.847C359.452 163.659 359.721 162.385 359.721 161.099C359.721 159.813 359.452 158.54 358.928 157.351C358.405 156.163 357.638 155.083 356.671 154.174C355.703 153.265 354.555 152.543 353.291 152.051C352.027 151.559 350.673 151.305 349.305 151.305C347.937 151.305 346.583 151.559 345.319 152.051C344.055 152.543 342.907 153.265 341.94 154.174L321.143 173.728C320.174 174.636 319.405 175.715 318.88 176.903C318.355 178.092 318.085 179.366 318.085 180.653C318.085 181.939 318.355 183.214 318.88 184.402C319.405 185.59 320.174 186.67 321.143 187.578L341.94 207.131C342.907 208.041 344.055 208.762 345.319 209.254C346.583 209.747 347.937 210 349.305 210C350.673 210 352.027 209.747 353.291 209.254C354.555 208.762 355.703 208.041 356.671 207.131C357.638 206.222 358.405 205.142 358.928 203.954C359.452 202.766 359.721 201.492 359.721 200.206C359.721 198.92 359.452 197.647 358.928 196.458C358.405 195.27 357.638 194.19 356.671 193.281L353.629 190.438H404.754C409.011 190.435 413.193 189.379 416.879 187.376C420.565 185.372 423.626 182.492 425.753 179.025C427.881 175.557 429.001 171.625 429 167.621C428.999 163.618 427.878 159.686 425.749 156.219H425.715Z" fill="#D0F154"/>
</svg> -->
<!-- <svg width="456" height="230" viewBox="0 0 456 230" fill="none" xmlns="http://www.w3.org/2000/svg">
<g clip-path="url(#clip0_32_100)">
<rect width="456" height="230" fill="#C7EA46"/>
<path d="M347.237 142.661C347.237 145.254 346.142 147.741 344.192 149.574C342.242 151.408 339.597 152.438 336.839 152.438H295.246C290.989 152.435 286.807 151.379 283.121 149.376C279.435 147.372 276.374 144.492 274.247 141.025C272.119 137.557 270.999 133.625 271 129.621C271.001 125.618 272.122 121.686 274.251 118.219L299.77 76.7655L295.645 77.8002C294.316 78.1623 292.923 78.2714 291.549 78.1211C290.175 77.9708 288.846 77.5641 287.641 76.9248C286.436 76.2856 285.379 75.4266 284.531 74.3982C283.684 73.3699 283.063 72.1928 282.705 70.936C282.348 69.6792 282.261 68.368 282.449 67.0791C282.637 65.7903 283.097 64.5497 283.802 63.4302C284.507 62.3106 285.442 61.3345 286.553 60.5592C287.664 59.7838 288.929 59.2247 290.273 58.9147L318.668 51.7695C321.331 51.1 324.167 51.4515 326.554 52.747C328.94 54.0425 330.683 56.1759 331.397 58.6784L339.014 85.3772C339.413 86.6296 339.54 87.9444 339.388 89.2438C339.237 90.5433 338.81 91.801 338.132 92.9425C337.455 94.084 336.541 95.0862 335.444 95.8898C334.348 96.6934 333.091 97.2821 331.748 97.621C330.405 97.96 329.004 98.0423 327.627 97.8631C326.249 97.6839 324.924 97.2468 323.73 96.5777C322.536 95.9087 321.496 95.0212 320.673 93.9677C319.849 92.9143 319.259 91.7164 318.937 90.4448L317.845 86.4445L292.283 127.996C291.98 128.489 291.82 129.047 291.818 129.616C291.817 130.185 291.973 130.745 292.273 131.239C292.573 131.734 293.005 132.146 293.527 132.434C294.048 132.723 294.641 132.878 295.246 132.884H336.839C339.597 132.884 342.242 133.914 344.192 135.748C346.142 137.581 347.237 140.068 347.237 142.661ZM371.5 2.52717C372.11 2.51659 372.712 2.66273 373.24 2.94987C373.768 3.23701 374.203 3.65425 374.498 4.15664L400.017 45.602L395.901 44.5673C394.565 44.1846 393.16 44.059 391.771 44.198C390.382 44.337 389.037 44.7378 387.816 45.3763C386.596 46.0149 385.524 46.8782 384.666 47.9147C383.808 48.9511 383.181 50.1395 382.822 51.4089C382.463 52.6783 382.38 54.0026 382.578 55.3029C382.776 56.6031 383.25 57.8526 383.972 58.9767C384.695 60.1008 385.651 61.0765 386.783 61.8455C387.916 62.6146 389.201 63.1612 390.563 63.4527L418.959 70.6142C421.622 71.2838 424.458 70.9322 426.845 69.6367C429.231 68.3413 430.974 66.2079 431.688 63.7053L439.262 36.9903C439.977 34.4838 439.603 31.8129 438.223 29.5654C436.844 27.3178 434.571 25.6776 431.905 25.0056C429.239 24.3336 426.399 24.6848 424.008 25.982C421.618 27.2792 419.873 29.4161 419.159 31.9227L418.023 35.8823L392.496 -5.62013C390.364 -9.08092 387.302 -11.954 383.617 -13.9513C379.932 -15.9486 375.753 -17 371.5 -17C367.247 -17 363.068 -15.9486 359.383 -13.9513C355.698 -11.954 352.636 -9.08092 350.504 -5.62013L330.436 26.9691C329.7 28.082 329.209 29.3228 328.993 30.6176C328.777 31.9124 328.84 33.2348 329.179 34.5062C329.517 35.7776 330.124 36.972 330.963 38.0185C331.802 39.065 332.857 39.9421 334.064 40.5978C335.271 41.2534 336.606 41.6742 337.989 41.8351C339.372 41.996 340.776 41.8938 342.116 41.5345C343.457 41.1751 344.707 40.566 345.792 39.7434C346.877 38.9208 347.775 37.9014 348.433 36.7459L368.502 4.15664C368.797 3.65425 369.232 3.23701 369.76 2.94987C370.288 2.66273 370.89 2.51659 371.5 2.52717ZM468.715 118.219L448.664 85.6297C448.006 84.4742 447.108 83.4548 446.022 82.6322C444.937 81.8096 443.687 81.2005 442.347 80.8412C441.006 80.4818 439.603 80.3796 438.219 80.5405C436.836 80.7014 435.501 81.1222 434.294 81.7778C433.087 82.4335 432.033 83.3106 431.193 84.3571C430.354 85.4036 429.747 86.598 429.409 87.8694C429.07 89.1408 429.007 90.4632 429.223 91.758C429.439 93.0528 429.93 94.2935 430.666 95.4065L450.717 127.996C451.021 128.491 451.181 129.053 451.182 129.624C451.182 130.196 451.022 130.758 450.718 131.253C450.414 131.749 449.977 132.16 449.451 132.446C448.924 132.733 448.327 132.884 447.719 132.884H396.629L399.671 130.024C400.638 129.115 401.405 128.035 401.928 126.847C402.452 125.659 402.721 124.385 402.721 123.099C402.721 121.813 402.452 120.54 401.928 119.351C401.405 118.163 400.638 117.083 399.671 116.174C398.703 115.265 397.555 114.543 396.291 114.051C395.027 113.559 393.673 113.305 392.305 113.305C390.937 113.305 389.583 113.559 388.319 114.051C387.055 114.543 385.907 115.265 384.94 116.174L364.143 135.728C363.174 136.636 362.405 137.715 361.88 138.903C361.355 140.092 361.085 141.366 361.085 142.653C361.085 143.939 361.355 145.214 361.88 146.402C362.405 147.59 363.174 148.67 364.143 149.578L384.94 169.131C385.907 170.041 387.055 170.762 388.319 171.254C389.583 171.747 390.937 172 392.305 172C393.673 172 395.027 171.747 396.291 171.254C397.555 170.762 398.703 170.041 399.671 169.131C400.638 168.222 401.405 167.142 401.928 165.954C402.452 164.766 402.721 163.492 402.721 162.206C402.721 160.92 402.452 159.647 401.928 158.458C401.405 157.27 400.638 156.19 399.671 155.281L396.629 152.438H447.754C452.011 152.435 456.193 151.379 459.879 149.376C463.565 147.372 466.626 144.492 468.753 141.025C470.881 137.557 472.001 133.625 472 129.621C471.999 125.618 470.878 121.686 468.749 118.219H468.715Z" fill="#D0F154"/>
</g>
<defs>
<clipPath id="clip0_32_100">
<rect width="456" height="230" fill="white"/>
</clipPath>
</defs>
</svg> -->
<!-- <svg width="456" height="230" viewBox="0 0 456 230" fill="none" xmlns="http://www.w3.org/2000/svg">
<g clip-path="url(#clip0_32_100)">
<rect width="456" height="230" fill="white"/>
<path d="M347.237 142.661C347.237 145.254 346.142 147.741 344.192 149.574C342.242 151.408 339.597 152.438 336.839 152.438H295.246C290.989 152.435 286.807 151.379 283.121 149.376C279.435 147.372 276.374 144.492 274.247 141.025C272.119 137.557 270.999 133.625 271 129.621C271.001 125.618 272.122 121.686 274.251 118.219L299.77 76.7655L295.645 77.8002C294.316 78.1623 292.923 78.2714 291.549 78.1211C290.175 77.9708 288.846 77.5641 287.641 76.9248C286.436 76.2856 285.379 75.4266 284.531 74.3982C283.684 73.3699 283.063 72.1928 282.705 70.936C282.348 69.6792 282.261 68.368 282.449 67.0791C282.637 65.7903 283.097 64.5497 283.802 63.4302C284.507 62.3106 285.442 61.3345 286.553 60.5592C287.664 59.7838 288.929 59.2247 290.273 58.9147L318.668 51.7695C321.331 51.1 324.167 51.4515 326.554 52.747C328.94 54.0425 330.683 56.1759 331.397 58.6784L339.014 85.3772C339.413 86.6296 339.54 87.9444 339.388 89.2438C339.237 90.5433 338.81 91.801 338.132 92.9425C337.455 94.084 336.541 95.0862 335.444 95.8898C334.348 96.6934 333.091 97.2821 331.748 97.621C330.405 97.96 329.004 98.0423 327.627 97.8631C326.249 97.6839 324.924 97.2468 323.73 96.5777C322.536 95.9087 321.496 95.0212 320.673 93.9677C319.849 92.9143 319.259 91.7164 318.937 90.4448L317.845 86.4445L292.283 127.996C291.98 128.489 291.82 129.047 291.818 129.616C291.817 130.185 291.973 130.745 292.273 131.239C292.573 131.734 293.005 132.146 293.527 132.434C294.048 132.723 294.641 132.878 295.246 132.884H336.839C339.597 132.884 342.242 133.914 344.192 135.748C346.142 137.581 347.237 140.068 347.237 142.661ZM371.5 2.52717C372.11 2.51659 372.712 2.66273 373.24 2.94987C373.768 3.23701 374.203 3.65425 374.498 4.15664L400.017 45.602L395.901 44.5673C394.565 44.1846 393.16 44.059 391.771 44.198C390.382 44.337 389.037 44.7378 387.816 45.3763C386.596 46.0149 385.524 46.8782 384.666 47.9147C383.808 48.9511 383.181 50.1395 382.822 51.4089C382.463 52.6783 382.38 54.0026 382.578 55.3029C382.776 56.6031 383.25 57.8526 383.972 58.9767C384.695 60.1008 385.651 61.0765 386.783 61.8455C387.916 62.6146 389.201 63.1612 390.563 63.4527L418.959 70.6142C421.622 71.2838 424.458 70.9322 426.845 69.6367C429.231 68.3413 430.974 66.2079 431.688 63.7053L439.262 36.9903C439.977 34.4838 439.603 31.8129 438.223 29.5654C436.844 27.3178 434.571 25.6776 431.905 25.0056C429.239 24.3336 426.399 24.6848 424.008 25.982C421.618 27.2792 419.873 29.4161 419.159 31.9227L418.023 35.8823L392.496 -5.62013C390.364 -9.08092 387.302 -11.954 383.617 -13.9513C379.932 -15.9486 375.753 -17 371.5 -17C367.247 -17 363.068 -15.9486 359.383 -13.9513C355.698 -11.954 352.636 -9.08092 350.504 -5.62013L330.436 26.9691C329.7 28.082 329.209 29.3228 328.993 30.6176C328.777 31.9124 328.84 33.2348 329.179 34.5062C329.517 35.7776 330.124 36.972 330.963 38.0185C331.802 39.065 332.857 39.9421 334.064 40.5978C335.271 41.2534 336.606 41.6742 337.989 41.8351C339.372 41.996 340.776 41.8938 342.116 41.5345C343.457 41.1751 344.707 40.566 345.792 39.7434C346.877 38.9208 347.775 37.9014 348.433 36.7459L368.502 4.15664C368.797 3.65425 369.232 3.23701 369.76 2.94987C370.288 2.66273 370.89 2.51659 371.5 2.52717ZM468.715 118.219L448.664 85.6297C448.006 84.4742 447.108 83.4548 446.022 82.6322C444.937 81.8096 443.687 81.2005 442.347 80.8412C441.006 80.4818 439.603 80.3796 438.219 80.5405C436.836 80.7014 435.501 81.1222 434.294 81.7778C433.087 82.4335 432.033 83.3106 431.193 84.3571C430.354 85.4036 429.747 86.598 429.409 87.8694C429.07 89.1408 429.007 90.4632 429.223 91.758C429.439 93.0528 429.93 94.2935 430.666 95.4065L450.717 127.996C451.021 128.491 451.181 129.053 451.182 129.624C451.182 130.196 451.022 130.758 450.718 131.253C450.414 131.749 449.977 132.16 449.451 132.446C448.924 132.733 448.327 132.884 447.719 132.884H396.629L399.671 130.024C400.638 129.115 401.405 128.035 401.928 126.847C402.452 125.659 402.721 124.385 402.721 123.099C402.721 121.813 402.452 120.54 401.928 119.351C401.405 118.163 400.638 117.083 399.671 116.174C398.703 115.265 397.555 114.543 396.291 114.051C395.027 113.559 393.673 113.305 392.305 113.305C390.937 113.305 389.583 113.559 388.319 114.051C387.055 114.543 385.907 115.265 384.94 116.174L364.143 135.728C363.174 136.636 362.405 137.715 361.88 138.903C361.355 140.092 361.085 141.366 361.085 142.653C361.085 143.939 361.355 145.214 361.88 146.402C362.405 147.59 363.174 148.67 364.143 149.578L384.94 169.131C385.907 170.041 387.055 170.762 388.319 171.254C389.583 171.747 390.937 172 392.305 172C393.673 172 395.027 171.747 396.291 171.254C397.555 170.762 398.703 170.041 399.671 169.131C400.638 168.222 401.405 167.142 401.928 165.954C402.452 164.766 402.721 163.492 402.721 162.206C402.721 160.92 402.452 159.647 401.928 158.458C401.405 157.27 400.638 156.19 399.671 155.281L396.629 152.438H447.754C452.011 152.435 456.193 151.379 459.879 149.376C463.565 147.372 466.626 144.492 468.753 141.025C470.881 137.557 472.001 133.625 472 129.621C471.999 125.618 470.878 121.686 468.749 118.219H468.715Z" fill="#D0F154"/>
</g>
<defs>
<clipPath id="clip0_32_100">
<rect width="456" height="230" fill="white"/>
</clipPath>
</defs>
</svg> -->
<!-- <svg width="456" height="230" viewBox="0 0 456 230" fill="none" xmlns="http://www.w3.org/2000/svg">
<g clip-path="url(#clip0_32_100)">
<rect width="456" height="230" fill="white"/>
<path d="M347.237 142.661C347.237 145.254 346.142 147.741 344.192 149.574C342.242 151.408 339.597 152.438 336.839 152.438H295.246C290.989 152.435 286.807 151.379 283.121 149.376C279.435 147.372 276.374 144.492 274.247 141.025C272.119 137.557 270.999 133.625 271 129.621C271.001 125.618 272.122 121.686 274.251 118.219L299.77 76.7655L295.645 77.8002C294.316 78.1623 292.923 78.2714 291.549 78.1211C290.175 77.9708 288.846 77.5641 287.641 76.9248C286.436 76.2856 285.379 75.4266 284.531 74.3982C283.684 73.3699 283.063 72.1928 282.705 70.936C282.348 69.6792 282.261 68.368 282.449 67.0791C282.637 65.7903 283.097 64.5497 283.802 63.4302C284.507 62.3106 285.442 61.3345 286.553 60.5592C287.664 59.7838 288.929 59.2247 290.273 58.9147L318.668 51.7695C321.331 51.1 324.167 51.4515 326.554 52.747C328.94 54.0425 330.683 56.1759 331.397 58.6784L339.014 85.3772C339.413 86.6296 339.54 87.9444 339.388 89.2438C339.237 90.5433 338.81 91.801 338.132 92.9425C337.455 94.084 336.541 95.0862 335.444 95.8898C334.348 96.6934 333.091 97.2821 331.748 97.621C330.405 97.96 329.004 98.0423 327.627 97.8631C326.249 97.6839 324.924 97.2468 323.73 96.5777C322.536 95.9087 321.496 95.0212 320.673 93.9677C319.849 92.9143 319.259 91.7164 318.937 90.4448L317.845 86.4445L292.283 127.996C291.98 128.489 291.82 129.047 291.818 129.616C291.817 130.185 291.973 130.745 292.273 131.239C292.573 131.734 293.005 132.146 293.527 132.434C294.048 132.723 294.641 132.878 295.246 132.884H336.839C339.597 132.884 342.242 133.914 344.192 135.748C346.142 137.581 347.237 140.068 347.237 142.661ZM371.5 2.52717C372.11 2.51659 372.712 2.66273 373.24 2.94987C373.768 3.23701 374.203 3.65425 374.498 4.15664L400.017 45.602L395.901 44.5673C394.565 44.1846 393.16 44.059 391.771 44.198C390.382 44.337 389.037 44.7378 387.816 45.3763C386.596 46.0149 385.524 46.8782 384.666 47.9147C383.808 48.9511 383.181 50.1395 382.822 51.4089C382.463 52.6783 382.38 54.0026 382.578 55.3029C382.776 56.6031 383.25 57.8526 383.972 58.9767C384.695 60.1008 385.651 61.0765 386.783 61.8455C387.916 62.6146 389.201 63.1612 390.563 63.4527L418.959 70.6142C421.622 71.2838 424.458 70.9322 426.845 69.6367C429.231 68.3413 430.974 66.2079 431.688 63.7053L439.262 36.9903C439.977 34.4838 439.603 31.8129 438.223 29.5654C436.844 27.3178 434.571 25.6776 431.905 25.0056C429.239 24.3336 426.399 24.6848 424.008 25.982C421.618 27.2792 419.873 29.4161 419.159 31.9227L418.023 35.8823L392.496 -5.62013C390.364 -9.08092 387.302 -11.954 383.617 -13.9513C379.932 -15.9486 375.753 -17 371.5 -17C367.247 -17 363.068 -15.9486 359.383 -13.9513C355.698 -11.954 352.636 -9.08092 350.504 -5.62013L330.436 26.9691C329.7 28.082 329.209 29.3228 328.993 30.6176C328.777 31.9124 328.84 33.2348 329.179 34.5062C329.517 35.7776 330.124 36.972 330.963 38.0185C331.802 39.065 332.857 39.9421 334.064 40.5978C335.271 41.2534 336.606 41.6742 337.989 41.8351C339.372 41.996 340.776 41.8938 342.116 41.5345C343.457 41.1751 344.707 40.566 345.792 39.7434C346.877 38.9208 347.775 37.9014 348.433 36.7459L368.502 4.15664C368.797 3.65425 369.232 3.23701 369.76 2.94987C370.288 2.66273 370.89 2.51659 371.5 2.52717ZM468.715 118.219L448.664 85.6297C448.006 84.4742 447.108 83.4548 446.022 82.6322C444.937 81.8096 443.687 81.2005 442.347 80.8412C441.006 80.4818 439.603 80.3796 438.219 80.5405C436.836 80.7014 435.501 81.1222 434.294 81.7778C433.087 82.4335 432.033 83.3106 431.193 84.3571C430.354 85.4036 429.747 86.598 429.409 87.8694C429.07 89.1408 429.007 90.4632 429.223 91.758C429.439 93.0528 429.93 94.2935 430.666 95.4065L450.717 127.996C451.021 128.491 451.181 129.053 451.182 129.624C451.182 130.196 451.022 130.758 450.718 131.253C450.414 131.749 449.977 132.16 449.451 132.446C448.924 132.733 448.327 132.884 447.719 132.884H396.629L399.671 130.024C400.638 129.115 401.405 128.035 401.928 126.847C402.452 125.659 402.721 124.385 402.721 123.099C402.721 121.813 402.452 120.54 401.928 119.351C401.405 118.163 400.638 117.083 399.671 116.174C398.703 115.265 397.555 114.543 396.291 114.051C395.027 113.559 393.673 113.305 392.305 113.305C390.937 113.305 389.583 113.559 388.319 114.051C387.055 114.543 385.907 115.265 384.94 116.174L364.143 135.728C363.174 136.636 362.405 137.715 361.88 138.903C361.355 140.092 361.085 141.366 361.085 142.653C361.085 143.939 361.355 145.214 361.88 146.402C362.405 147.59 363.174 148.67 364.143 149.578L384.94 169.131C385.907 170.041 387.055 170.762 388.319 171.254C389.583 171.747 390.937 172 392.305 172C393.673 172 395.027 171.747 396.291 171.254C397.555 170.762 398.703 170.041 399.671 169.131C400.638 168.222 401.405 167.142 401.928 165.954C402.452 164.766 402.721 163.492 402.721 162.206C402.721 160.92 402.452 159.647 401.928 158.458C401.405 157.27 400.638 156.19 399.671 155.281L396.629 152.438H447.754C452.011 152.435 456.193 151.379 459.879 149.376C463.565 147.372 466.626 144.492 468.753 141.025C470.881 137.557 472.001 133.625 472 129.621C471.999 125.618 470.878 121.686 468.749 118.219H468.715Z" fill="#D7FA52" fill-opacity="0.5"/>
</g>
<defs>
<clipPath id="clip0_32_100">
<rect width="456" height="230" fill="white"/>
</clipPath>
</defs>
</svg> -->
<svg width="456" height="230" viewBox="0 0 456 230" fill="none" xmlns="http://www.w3.org/2000/svg">
<rect width="456" height="230" fill="white"/>
<path d="M312.237 180.661C312.237 183.254 311.142 185.741 309.192 187.574C307.242 189.408 304.597 190.438 301.839 190.438H260.246C255.989 190.435 251.807 189.379 248.121 187.376C244.435 185.372 241.374 182.492 239.247 179.025C237.119 175.557 235.999 171.625 236 167.621C236.001 163.618 237.122 159.686 239.251 156.219L264.77 114.765L260.645 115.8C259.316 116.162 257.923 116.271 256.549 116.121C255.175 115.971 253.846 115.564 252.641 114.925C251.436 114.286 250.379 113.427 249.531 112.398C248.684 111.37 248.063 110.193 247.705 108.936C247.348 107.679 247.261 106.368 247.449 105.079C247.637 103.79 248.097 102.55 248.802 101.43C249.507 100.311 250.442 99.3345 251.553 98.5592C252.664 97.7838 253.929 97.2247 255.273 96.9147L283.668 89.7695C286.331 89.1 289.167 89.4515 291.554 90.747C293.94 92.0425 295.683 94.1759 296.397 96.6784L304.014 123.377C304.413 124.63 304.54 125.944 304.388 127.244C304.237 128.543 303.81 129.801 303.132 130.942C302.455 132.084 301.541 133.086 300.444 133.89C299.348 134.693 298.091 135.282 296.748 135.621C295.405 135.96 294.004 136.042 292.627 135.863C291.249 135.684 289.924 135.247 288.73 134.578C287.536 133.909 286.496 133.021 285.673 131.968C284.849 130.914 284.259 129.716 283.937 128.445L282.845 124.444L257.283 165.996C256.98 166.489 256.82 167.047 256.818 167.616C256.817 168.185 256.973 168.745 257.273 169.239C257.573 169.734 258.005 170.146 258.527 170.434C259.048 170.723 259.641 170.878 260.246 170.884H301.839C304.597 170.884 307.242 171.914 309.192 173.748C311.142 175.581 312.237 178.068 312.237 180.661ZM336.5 40.5272C337.11 40.5166 337.712 40.6627 338.24 40.9499C338.768 41.237 339.203 41.6542 339.498 42.1566L365.017 83.602L360.901 82.5673C359.565 82.1846 358.16 82.059 356.771 82.198C355.382 82.337 354.037 82.7378 352.816 83.3763C351.596 84.0149 350.524 84.8782 349.666 85.9147C348.808 86.9511 348.181 88.1395 347.822 89.4089C347.463 90.6783 347.38 92.0026 347.578 93.3029C347.776 94.6031 348.25 95.8526 348.972 96.9767C349.695 98.1008 350.651 99.0765 351.783 99.8455C352.916 100.615 354.201 101.161 355.563 101.453L383.959 108.614C386.622 109.284 389.458 108.932 391.845 107.637C394.231 106.341 395.974 104.208 396.688 101.705L404.262 74.9903C404.977 72.4838 404.603 69.8129 403.223 67.5654C401.844 65.3178 399.571 63.6776 396.905 63.0056C394.239 62.3336 391.399 62.6848 389.008 63.982C386.618 65.2792 384.873 67.4161 384.159 69.9227L383.023 73.8823L357.496 32.3799C355.364 28.9191 352.302 26.046 348.617 24.0487C344.932 22.0514 340.753 21 336.5 21C332.247 21 328.068 22.0514 324.383 24.0487C320.698 26.046 317.636 28.9191 315.504 32.3799L295.436 64.9691C294.7 66.082 294.209 67.3228 293.993 68.6176C293.777 69.9124 293.84 71.2348 294.179 72.5062C294.517 73.7776 295.124 74.972 295.963 76.0185C296.802 77.065 297.857 77.9421 299.064 78.5978C300.271 79.2534 301.606 79.6742 302.989 79.8351C304.372 79.996 305.776 79.8938 307.116 79.5345C308.457 79.1751 309.707 78.566 310.792 77.7434C311.877 76.9208 312.775 75.9014 313.433 74.7459L333.502 42.1566C333.797 41.6542 334.232 41.237 334.76 40.9499C335.288 40.6627 335.89 40.5166 336.5 40.5272ZM433.715 156.219L413.664 123.63C413.006 122.474 412.108 121.455 411.022 120.632C409.937 119.81 408.687 119.2 407.347 118.841C406.006 118.482 404.603 118.38 403.219 118.54C401.836 118.701 400.501 119.122 399.294 119.778C398.087 120.433 397.033 121.311 396.193 122.357C395.354 123.404 394.747 124.598 394.409 125.869C394.07 127.141 394.007 128.463 394.223 129.758C394.439 131.053 394.93 132.294 395.666 133.406L415.717 165.996C416.021 166.491 416.181 167.053 416.182 167.624C416.182 168.196 416.022 168.758 415.718 169.253C415.414 169.749 414.977 170.16 414.451 170.446C413.924 170.733 413.327 170.884 412.719 170.884H361.629L364.671 168.024C365.638 167.115 366.405 166.035 366.928 164.847C367.452 163.659 367.721 162.385 367.721 161.099C367.721 159.813 367.452 158.54 366.928 157.351C366.405 156.163 365.638 155.083 364.671 154.174C363.703 153.265 362.555 152.543 361.291 152.051C360.027 151.559 358.673 151.305 357.305 151.305C355.937 151.305 354.583 151.559 353.319 152.051C352.055 152.543 350.907 153.265 349.94 154.174L329.143 173.728C328.174 174.636 327.405 175.715 326.88 176.903C326.355 178.092 326.085 179.366 326.085 180.653C326.085 181.939 326.355 183.214 326.88 184.402C327.405 185.59 328.174 186.67 329.143 187.578L349.94 207.131C350.907 208.041 352.055 208.762 353.319 209.254C354.583 209.747 355.937 210 357.305 210C358.673 210 360.027 209.747 361.291 209.254C362.555 208.762 363.703 208.041 364.671 207.131C365.638 206.222 366.405 205.142 366.928 203.954C367.452 202.766 367.721 201.492 367.721 200.206C367.721 198.92 367.452 197.647 366.928 196.458C366.405 195.27 365.638 194.19 364.671 193.281L361.629 190.438H412.754C417.011 190.435 421.193 189.379 424.879 187.376C428.565 185.372 431.626 182.492 433.753 179.025C435.881 175.557 437.001 171.625 437 167.621C436.999 163.618 435.878 159.686 433.749 156.219H433.715Z" fill="#D7FA52" fill-opacity="0.5"/>
</svg>

