<svg width="450" height="480" viewBox="0 0 450 480" fill="none" xmlns="http://www.w3.org/2000/svg">
<g clip-path="url(#clip0_41_9)">
<path d="M311.066 139.851L284.738 155.969C256.296 109.508 204.988 90.7319 168.129 113.296C131.269 135.86 124.654 190.094 153.095 236.554L126.767 252.671C112.286 261.536 109.58 283.722 120.753 301.975L242.644 501.092C253.817 519.344 274.807 527.025 289.287 518.161L473.587 405.341C488.068 396.477 490.774 374.29 479.6 356.038L357.71 156.92C346.536 138.668 325.547 130.987 311.066 139.851ZM188.444 146.482C210.823 132.783 241.141 143.877 258.409 172.086L179.424 220.437C162.156 192.229 166.064 160.182 188.444 146.482ZM453.272 372.155L268.972 484.975L147.082 285.857L331.381 173.038L453.272 372.155ZM279.862 295.82C257.482 309.519 227.164 298.425 209.896 270.216L183.568 286.333C212.009 332.794 263.317 351.57 300.177 329.006C337.037 306.442 343.651 252.208 315.21 205.748L288.882 221.865C306.15 250.073 302.241 282.12 279.862 295.82Z" fill="#D7FA52" fill-opacity="0.5"/>
</g>
<defs>
<clipPath id="clip0_41_9">
<rect width="370.439" height="466.926" fill="white" transform="translate(0 193.406) rotate(-31.4731)"/>
</clipPath>
</defs>
</svg>
