<svg width="428" height="444" viewBox="0 0 428 444" fill="none" xmlns="http://www.w3.org/2000/svg">
<g clip-path="url(#clip0_39_2)">
<path d="M184.033 220.924C186.82 219.388 190.104 219.022 193.161 219.907C196.218 220.792 198.798 222.856 200.334 225.643L281.41 372.785C282.946 375.572 283.312 378.856 282.427 381.913C281.542 384.97 279.479 387.55 276.691 389.086C273.904 390.622 270.62 390.988 267.563 390.103C264.506 389.218 261.926 387.154 260.39 384.367L179.314 237.225C177.778 234.438 177.412 231.154 178.297 228.097C179.182 225.04 181.245 222.46 184.033 220.924ZM226.073 197.759C228.861 196.224 232.144 195.858 235.201 196.743C238.258 197.628 240.839 199.691 242.375 202.478L323.451 349.62C324.986 352.408 325.352 355.691 324.467 358.748C323.582 361.805 321.519 364.386 318.732 365.921C315.944 367.457 312.661 367.823 309.604 366.938C306.547 366.053 303.966 363.99 302.43 361.202L221.354 214.061C219.818 211.273 219.453 207.99 220.338 204.933C221.223 201.876 223.286 199.295 226.073 197.759ZM268.114 174.595C270.901 173.059 274.185 172.693 277.242 173.578C280.299 174.463 282.879 176.526 284.415 179.314L365.491 326.456C367.027 329.243 367.393 332.527 366.508 335.584C365.623 338.641 363.56 341.221 360.772 342.757C357.985 344.293 354.701 344.658 351.644 343.774C348.587 342.889 346.007 340.825 344.471 338.038L263.395 190.896C261.859 188.109 261.493 184.825 262.378 181.768C263.263 178.711 265.326 176.131 268.114 174.595Z" fill="#D7FA52" fill-opacity="0.5"/>
<path d="M136.632 110.032C133.844 111.568 131.781 114.148 130.896 117.205C130.011 120.262 130.377 123.545 131.913 126.333L160.868 178.883L139.848 190.466C128.698 196.609 120.446 206.931 116.906 219.159C113.366 231.387 114.829 244.521 120.972 255.671L213.63 423.833C217.766 431.342 223.837 437.606 231.212 441.975C238.588 446.344 246.999 448.658 255.571 448.677C256.494 452.218 258.211 455.503 260.594 458.281C262.976 461.059 265.961 463.257 269.32 464.708C272.68 466.159 276.326 466.826 279.982 466.656C283.638 466.486 287.207 465.485 290.418 463.729C295.993 460.657 300.119 455.497 301.889 449.382C303.659 443.268 302.927 436.701 299.856 431.126L383.937 384.797C385.587 387.771 387.85 390.36 390.577 392.393C393.303 394.426 396.43 395.857 399.752 396.589C403.073 397.322 406.512 397.341 409.84 396.644C413.169 395.947 416.312 394.55 419.06 392.547C421.808 390.544 424.1 387.979 425.782 385.023C427.464 382.067 428.498 378.787 428.817 375.401C429.136 372.015 428.731 368.6 427.63 365.383C426.529 362.165 424.756 359.218 422.43 356.737C426.994 349.48 429.531 341.134 429.777 332.565C430.024 323.996 427.971 315.517 423.833 308.01L331.175 139.848C325.031 128.698 314.71 120.446 302.481 116.906C290.253 113.366 277.119 114.829 265.97 120.972L244.949 132.554L215.994 80.0038C214.458 77.2163 211.877 75.1531 208.82 74.2682C205.763 73.3832 202.48 73.7489 199.692 75.2848L136.632 110.032ZM223.929 144.137L181.889 167.301L158.724 125.261L200.765 102.096L223.929 144.137ZM402.813 319.592C405.884 325.167 406.616 331.734 404.846 337.848C403.076 343.962 398.95 349.123 393.375 352.195L267.253 421.689C261.678 424.76 255.111 425.492 248.997 423.722C242.883 421.952 237.722 417.825 234.651 412.251L141.992 244.089C138.921 238.514 138.189 231.947 139.959 225.833C141.729 219.718 145.855 214.558 151.43 211.486L277.552 141.992C283.127 138.921 289.694 138.189 295.808 139.959C301.922 141.729 307.083 145.855 310.154 151.43L402.813 319.592Z" fill="#D7FA52" fill-opacity="0.5"/>
</g>
<defs>
<clipPath id="clip0_39_2">
<rect width="384" height="384" fill="white" transform="translate(0 185.316) rotate(-28.855)"/>
</clipPath>
</defs>
</svg>

