<svg width="392" height="393" viewBox="0 0 392 393" fill="none" xmlns="http://www.w3.org/2000/svg">
<g clip-path="url(#clip0_41_7)">
<path d="M313.381 117.389L305.693 101.668L274.252 117.045L251.187 69.8831L62.5387 162.143L170.176 382.233L248.779 343.791L279.532 406.673L330.624 381.686L326.694 383.608C318.356 387.687 308.738 388.285 299.958 385.272C291.178 382.26 283.954 375.883 279.876 367.544L202.993 210.337C198.915 201.998 198.316 192.381 201.329 183.601C204.341 174.821 210.719 167.597 219.057 163.519L313.381 117.389ZM330.624 381.686L200.929 445.115C192.59 449.193 182.973 449.792 174.193 446.779C165.413 443.767 158.189 437.389 154.111 429.051L31.0974 177.52C22.6402 160.227 29.8693 139.159 47.162 130.702L235.81 38.4417C244.149 34.3636 253.766 33.765 262.546 36.7777C271.326 39.7904 278.55 46.1676 282.628 54.5064L313.381 117.389C321.72 113.311 331.337 112.712 340.118 115.725C348.898 118.738 356.121 125.115 360.199 133.454L437.083 290.66C441.161 298.999 441.76 308.616 438.747 317.396C435.734 326.177 429.357 333.4 421.018 337.478L330.624 381.686ZM234.434 194.96L295.941 320.726L390.265 274.596L328.758 148.83L234.434 194.96ZM366.168 344.823C370.337 342.784 373.526 339.172 375.032 334.782C376.539 330.392 376.239 325.583 374.2 321.414C372.161 317.244 368.549 314.056 364.159 312.549C359.769 311.043 354.961 311.342 350.791 313.381C346.622 315.42 343.433 319.032 341.927 323.422C340.421 327.812 340.72 332.621 342.759 336.79C344.798 340.96 348.41 344.148 352.8 345.655C357.19 347.161 361.999 346.862 366.168 344.823Z" fill="#D7FA52" fill-opacity="0.5"/>
</g>
<defs>
<clipPath id="clip0_41_7">
<rect width="350" height="350" fill="white" transform="translate(0 153.767) rotate(-26.0614)"/>
</clipPath>
</defs>
</svg>
