<svg width="128" height="128" viewBox="0 0 128 128" fill="none" xmlns="http://www.w3.org/2000/svg">
<path d="M77.55 27C77.81 19.64 82.09 15.19 77.38 9.5C74.27 5.75 68.08 7.32 66.99 8.76C64.88 11.55 68.48 14.06 69.31 15.45C70.53 17.5 68.28 25.86 71.97 31.84C76.97 39.92 82.09 38.66 82.09 38.66C82.09 38.66 77.3 34.08 77.55 27Z" fill="#3C2C23"/>
<path d="M77.95 23.57C78.98 18.14 81.31 14.25 77.38 9.5C74.27 5.75 68.08 7.32 66.99 8.76C64.88 11.55 68.48 14.06 69.31 15.45C70.54 17.5 77.95 23.57 77.95 23.57Z" fill="url(#paint0_radial_25_37)"/>
<path d="M77.55 27C77.62 25.16 77.95 23.36 78.39 21.57C78.78 19.99 79.18 18.64 78.16 17.18C76.54 14.89 73.31 13.89 70.68 14.86C69.89 15.15 69.4 15.56 69.51 16.37C69.59 16.96 69.71 17.49 69.72 18.1C69.74 19.48 69.69 20.85 69.71 22.23C69.77 25.53 70.2 28.96 71.96 31.82C76.96 39.9 82.08 38.64 82.08 38.64C82.08 38.64 77.3 34.08 77.55 27Z" fill="url(#paint1_radial_25_37)"/>
<path d="M77.35 37.53C77.35 37.53 71.53 34.05 70.21 27.24C69.68 24.52 69.64 22.22 69.71 20.67C69.77 19.33 70.61 14.93 69.5 13.43" fill="url(#paint2_radial_25_37)"/>
<path d="M67.17 13.34C64.66 9.28 58.97 6.12 54.26 6.9C48.98 7.77 46.15 11.57 45.4 16.39C45.13 18.14 45.18 19.88 45.48 21.11C45.52 21.26 45.81 22.33 45.83 22.67C46.03 23.97 43.51 25.26 43.22 26.69C43 27.77 45.25 28.46 45.43 28.65C46.31 29.62 44.92 34.23 51.09 34.69C53.46 34.87 53 34.72 53.7 34.99C54.79 35.41 54.69 38.31 54.69 38.31C54.69 38.31 55.3 43.09 59.38 41.82C64.04 40.38 64.22 37.08 64.22 37.08C64.22 37.08 62.49 32.48 65.27 27.7C67.48 23.88 68.79 15.95 67.17 13.34Z" fill="#A56C43"/>
<path d="M46.05 31.23C46.91 31.28 47.75 31.08 48.48 30.54C49.27 29.95 48.73 29.3 47.82 29.68C47.27 29.91 46.5 30.03 45.8 29.9L46.05 31.23Z" fill="#473530"/>
<path d="M49.7049 25.129C50.3286 25.1092 50.8097 24.3146 50.7793 23.3541C50.7489 22.3936 50.2186 21.631 49.5948 21.6507C48.9711 21.6704 48.49 22.4651 48.5204 23.4256C48.5508 24.3861 49.0811 25.1487 49.7049 25.129Z" fill="#42312C"/>
<path d="M48.77 20.82C47.65 21.08 47.43 20.34 47.83 19.78C48.12 19.36 48.81 19.04 50.08 19.36C51.28 19.66 51.74 20.39 52.05 20.83C52.36 21.27 52.29 21.69 52.01 21.72C51.63 21.74 50.15 20.5 48.77 20.82Z" fill="#42312C"/>
<path d="M85.26 108.68L71.19 92.63C70.31 91.63 69.79 90.37 69.71 89.04L68.33 66.58L52.83 68.29L57.71 91.46C58.5 95.21 60.61 98.55 63.65 100.88L80.14 113.48L85.26 108.68Z" fill="#616161"/>
<path d="M68.15 62.88L50.57 64.49L46.04 84.88C45.21 88.64 44.92 92.51 45.19 96.35L46.82 119.59H53.49L56.44 94.56C56.44 94.56 61.45 81.24 61.61 81.16C65.68 79.23 69.2 76.24 69.02 71.33C68.93 68.51 68.47 65.67 68.15 62.88Z" fill="#7C7C7C"/>
<path d="M64.89 73.51H52.99C50.72 73.51 48.87 71.33 48.87 68.65L51.02 46.15C51.46 42.04 53.55 38.06 55.65 36.56C57.62 35.15 60.47 34.92 60.47 34.92C62 34.8 64.27 35.17 65.72 37.29C66.59 38.56 67.24 41.04 67.38 43.17L69 68.65C69 71.34 67.16 73.51 64.89 73.51Z" fill="url(#paint3_linear_25_37)"/>
<path d="M66.8 60.29L64.55 46.46L57.58 47.59L59.73 60.78L56.16 70.62C55.93 71.07 52.7 72.53 52.5 72.63C51.88 72.93 51.45 73.52 51.13 74.69C50.94 75.41 50.46 77.47 51.47 77.83C51.13 78.78 51.35 79.97 51.61 80.25C52.21 80.9 52.94 80.61 52.94 80.61C52.94 80.61 53.04 81.44 53.7 81.67C54.52 81.96 55.09 81.51 55.09 81.51C55.38 81.73 55.73 81.85 56.1 81.85C56.54 81.85 56.93 81.68 57.23 81.46C57.42 81.54 57.94 81.85 58.6 81.38C59.02 81.08 60.34 79.35 60.75 78.24C61.03 77.48 60.99 73.66 61.34 72.99C61.69 72.32 66.48 62.79 66.48 62.79H66.47C66.9 62 67 61.11 66.8 60.29Z" fill="url(#paint4_linear_25_37)"/>
<path d="M58.88 78.7C58.65 78.1 58.5 78.06 58.08 78.17C57.51 78.32 56.89 78.3 56.54 77.6C56.46 77.43 56.34 77.37 56.16 77.43C55.55 77.63 54.79 77.64 54.53 76.72C54.43 76.38 54.29 76.34 53.92 76.34C53.8 76.34 53.45 76.49 53.09 76.11C52.69 75.68 53.23 74.82 52.72 74.74C52.57 74.72 51.85 74.8 51.63 74.03C51.49 73.53 52.07 72.93 52.08 72.92C51.68 73.27 51.37 73.82 51.14 74.7C50.95 75.42 50.47 77.48 51.48 77.84C51.14 78.79 51.36 79.98 51.62 80.26C52.22 80.91 52.95 80.62 52.95 80.62C52.95 80.62 53.05 81.45 53.71 81.68C54.53 81.97 55.1 81.52 55.1 81.52C55.39 81.74 55.74 81.86 56.11 81.86C56.55 81.86 56.94 81.69 57.24 81.47C57.43 81.55 57.95 81.86 58.61 81.39C58.96 81.14 59.95 79.87 60.5 78.81C60.01 79.2 59.05 79.15 58.88 78.7Z" fill="url(#paint5_linear_25_37)"/>
<path d="M54.6 123.98C55.23 123.98 55.75 123.47 55.75 122.83V120.03C55.75 118.13 53.82 115.96 53.82 115.96H46.84L40.56 118.03C39.04 118.63 38.03 120.09 38.02 121.72L38.01 122.98C38.01 123.53 38.46 123.98 39.01 123.98H54.6Z" fill="black"/>
<path d="M89.65 111.84C90.1 111.39 90.1 110.67 89.65 110.22L87.67 108.24C86.32 106.89 83.43 106.72 83.43 106.72L78.5 111.65L75.53 117.56C74.88 119.06 75.2 120.8 76.35 121.97L77.24 122.87C77.63 123.26 78.27 123.26 78.66 122.87L89.65 111.84Z" fill="black"/>
<path d="M58.37 79.39C58.44 79.88 58.31 80.25 58.13 80.61C57.93 80.95 57.69 81.26 57.24 81.47C57.17 80.98 57.3 80.61 57.48 80.25C57.67 79.91 57.92 79.6 58.37 79.39ZM56.35 78.48C56.42 79.11 56.28 79.67 56.08 80.2C55.86 80.72 55.6 81.23 55.11 81.64C55.04 81 55.18 80.45 55.38 79.92C55.6 79.41 55.87 78.9 56.35 78.48ZM53.95 77.48C54.07 78.1 53.97 78.66 53.82 79.2C53.65 79.73 53.42 80.25 52.97 80.7C52.85 80.08 52.95 79.52 53.1 78.98C53.28 78.45 53.51 77.93 53.95 77.48ZM53.8 73.88C53.49 74.15 53.19 74.43 52.94 74.73C52.67 75.03 52.54 75.3 52.45 75.69C52.22 76.43 51.99 77.2 51.45 77.91C51.29 77.04 51.45 76.22 51.78 75.44C51.95 75.06 52.28 74.62 52.64 74.4C53.01 74.15 53.4 73.98 53.8 73.88Z" fill="#875334"/>
<path d="M56.4 53L67.3 51.02L65.54 41.33C65.2772 39.8847 64.4512 38.6029 63.2435 37.7665C62.0358 36.9301 60.5454 36.6077 59.1 36.87C57.6547 37.1328 56.3729 37.9588 55.5365 39.1665C54.7001 40.3742 54.3776 41.8646 54.64 43.31L56.4 53Z" fill="#04A287"/>
<path d="M67.68 10.2C65.35 7.37001 61.57 5.56001 57.55 5.37001C54.06 5.20001 49.27 6.06001 46.33 8.97001C44.56 10.72 43.51 13.02 43.8 15.57C43.97 17.11 45.24 17.89 45.24 17.89C45.24 17.89 46.69 14.39 50.26 15.28C54.01 16.21 55.64 15.45 55.64 15.45C54.38 18.43 55.49 20.06 56.47 20.99C57.03 21.52 57.55 22.15 57.84 22.52C57.99 22.71 58.12 22.7 58.18 22.5C58.33 22.02 58.6 21.15 58.81 20.75C59.5 19.38 60.62 19.87 60.62 19.87C62.13 20.4 62.67 23.51 60.19 25.34C60.13 25.38 59.96 25.5 60.06 25.81C61.04 28.96 64.77 29.07 65 28.96C65 28.96 65.01 28.96 65.01 28.95C65.03 28.94 65.05 28.93 65.06 28.92C65.56 28.69 65.85 28.28 65.94 27.7C66.25 25.61 67.16 25 67.82 24.09C68.58 23.04 69.44 21.85 69.93 18.56C70.39 15.44 69.61 12.55 67.68 10.2Z" fill="#3C2C23"/>
<path d="M67.68 10.2C65.35 7.37001 61.57 5.56001 57.55 5.37001C54.06 5.20001 49.27 6.06001 46.33 8.97001C44.56 10.72 43.51 13.02 43.8 15.57C43.97 17.11 45.24 17.89 45.24 17.89C45.24 17.89 46.69 14.39 50.26 15.28C54.01 16.21 55.64 15.45 55.64 15.45C54.38 18.43 55.49 20.06 56.47 20.99C57.03 21.52 57.55 22.15 57.84 22.52C57.99 22.71 58.12 22.7 58.18 22.5C58.33 22.02 58.6 21.15 58.81 20.75C59.5 19.38 60.62 19.87 60.62 19.87C62.13 20.4 62.67 23.51 60.19 25.34C60.13 25.38 59.96 25.5 60.06 25.81C61.04 28.96 64.77 29.07 65 28.96C65 28.96 65.01 28.96 65.01 28.95C65.03 28.94 65.05 28.93 65.06 28.92C65.56 28.69 65.85 28.28 65.94 27.7C66.25 25.61 67.16 25 67.82 24.09C68.58 23.04 69.44 21.85 69.93 18.56C70.39 15.44 69.61 12.55 67.68 10.2Z" fill="url(#paint6_radial_25_37)"/>
<defs>
<radialGradient id="paint0_radial_25_37" cx="0" cy="0" r="1" gradientUnits="userSpaceOnUse" gradientTransform="translate(70.3632 21.5018) rotate(-6.41928) scale(13.5026 16.3262)">
<stop offset="0.526" stop-color="#554138" stop-opacity="0"/>
<stop offset="1" stop-color="#554138"/>
</radialGradient>
<radialGradient id="paint1_radial_25_37" cx="0" cy="0" r="1" gradientUnits="userSpaceOnUse" gradientTransform="translate(82.7283 32.0514) rotate(170.23) scale(14.4401 17.8144)">
<stop stop-color="#554138"/>
<stop offset="0.526" stop-color="#554138" stop-opacity="0"/>
</radialGradient>
<radialGradient id="paint2_radial_25_37" cx="0" cy="0" r="1" gradientUnits="userSpaceOnUse" gradientTransform="translate(76.5951 23.5318) rotate(170.043) scale(7.91869 25.258)">
<stop offset="0.526" stop-color="#554138" stop-opacity="0"/>
<stop offset="1" stop-color="#554138"/>
</radialGradient>
<linearGradient id="paint3_linear_25_37" x1="51.872" y1="50.36" x2="69.122" y2="62.36" gradientUnits="userSpaceOnUse">
<stop stop-color="#00BFA5"/>
<stop offset="0.705" stop-color="#00B29A"/>
<stop offset="1" stop-color="#009E89"/>
</linearGradient>
<linearGradient id="paint4_linear_25_37" x1="59.199" y1="70.383" x2="56.005" y2="51.658" gradientUnits="userSpaceOnUse">
<stop offset="0.461" stop-color="#A56C43"/>
<stop offset="1" stop-color="#8D5738"/>
</linearGradient>
<linearGradient id="paint5_linear_25_37" x1="53.334" y1="83.161" x2="55.581" y2="77.308" gradientUnits="userSpaceOnUse">
<stop offset="0.456" stop-color="#A56C43"/>
<stop offset="1" stop-color="#8D5738"/>
</linearGradient>
<radialGradient id="paint6_radial_25_37" cx="0" cy="0" r="1" gradientUnits="userSpaceOnUse" gradientTransform="translate(56.901 17.158) scale(12.501 12.501)">
<stop offset="0.526" stop-color="#554138" stop-opacity="0"/>
<stop offset="1" stop-color="#554138"/>
</radialGradient>
</defs>
</svg>
