<svg width="22" height="22" viewBox="0 0 22 22" fill="none" xmlns="http://www.w3.org/2000/svg">
<g clip-path="url(#clip0_13_4)">
<path fill-rule="evenodd" clip-rule="evenodd" d="M15.5857 2.11803C15.7292 2.25556 15.8122 2.44443 15.8165 2.64313C15.8208 2.84183 15.7461 3.03413 15.6088 3.17778L10.9927 7.99945L14.8428 11.6845C14.9187 11.7571 14.9785 11.8449 15.0183 11.9422C15.0581 12.0394 15.0771 12.144 15.0739 12.249C15.0707 12.354 15.0455 12.4572 14.9999 12.5519C14.9542 12.6465 14.8892 12.7305 14.8091 12.7985C12.7047 14.582 10.2682 15.9313 7.63984 16.7685L10.4005 18.2828C10.575 18.3785 10.7043 18.5395 10.7601 18.7306C10.8158 18.9217 10.7934 19.127 10.6977 19.3016C10.602 19.4761 10.441 19.6054 10.2499 19.6612C10.0588 19.7169 9.85347 19.6945 9.67895 19.5988L5.34007 17.2177C5.25362 17.1704 5.17735 17.1065 5.11561 17.0297C5.05388 16.9528 5.00789 16.8646 4.98028 16.77C4.95268 16.6753 4.94399 16.5762 4.95472 16.4782C4.96545 16.3803 4.99538 16.2854 5.04281 16.199L7.42389 11.8601C7.51957 11.6856 7.68066 11.5562 7.87171 11.5005C8.06277 11.4447 8.26814 11.4671 8.44266 11.5628C8.61718 11.6585 8.74654 11.8196 8.80228 12.0106C8.85803 12.2017 8.8356 12.4071 8.73992 12.5816L7.23426 15.323C9.38795 14.6309 11.404 13.5674 13.1912 12.1806L9.41358 8.56397C9.2701 8.42644 9.18708 8.23758 9.18275 8.03887C9.17843 7.84017 9.25315 7.64787 9.3905 7.50422L14.5249 2.14114C14.6625 1.99766 14.8513 1.91464 15.05 1.91031C15.2487 1.90598 15.442 1.98068 15.5857 2.11803Z" fill="#c7ea46"/>
</g>
<defs>
<clipPath id="clip0_13_4">
<rect width="20" height="20" fill="white" transform="translate(20.7799 0.784599) rotate(88.7522)"/>
</clipPath>
</defs>
</svg>
