<!-- <svg width="65" height="65" viewBox="0 0 65 65" fill="none" xmlns="http://www.w3.org/2000/svg">
<path fill-rule="evenodd" clip-rule="evenodd" d="M48.4047 16.4802L41.7354 18.4844L46.1771 30.1004C48.8537 29.4448 51.6795 29.8338 54.0794 31.1883C56.4793 32.5428 58.2727 34.761 59.0947 37.3913C59.9167 40.0216 59.7054 42.8663 58.5038 45.3462C57.3023 47.8262 55.2008 49.7551 52.6271 50.7402C50.0535 51.7253 47.2012 51.6925 44.6508 50.6486C42.1004 49.6048 40.0437 47.6282 38.8994 45.1213C37.755 42.6144 37.6091 39.7656 38.4912 37.1549C39.3733 34.5442 41.2172 32.3677 43.6475 31.0686L41.4158 25.2322L33.7215 41.214C33.6105 41.4436 33.4371 41.6372 33.221 41.7726C33.0049 41.9079 32.755 41.9795 32.5 41.9791H26.9994C26.6518 44.7109 25.277 47.2078 23.1546 48.9623C21.0321 50.7169 18.3212 51.5974 15.5729 51.425C12.8245 51.2525 10.2449 50.04 8.35842 48.034C6.47192 46.0279 5.42007 43.3787 5.41666 40.625C5.41461 37.8678 6.46389 35.2137 8.3507 33.2033C10.2375 31.1928 12.8199 29.9775 15.5716 29.8048C18.3233 29.6322 21.0374 30.5152 23.1607 32.274C25.284 34.0328 26.6568 36.535 26.9994 39.2708H30.3848L23.7765 20.7675C23.7244 20.6214 23.6979 20.4675 23.6979 20.3125H21.6667C21.3075 20.3125 20.9631 20.1698 20.7091 19.9159C20.4552 19.6619 20.3125 19.3175 20.3125 18.9583C20.3125 18.5992 20.4552 18.2547 20.7091 18.0008C20.9631 17.7468 21.3075 17.6041 21.6667 17.6041H27.7604C28.1196 17.6041 28.464 17.7468 28.718 18.0008C28.9719 18.2547 29.1146 18.5992 29.1146 18.9583C29.1146 19.3175 28.9719 19.6619 28.718 19.9159C28.464 20.1698 28.1196 20.3125 27.7604 20.3125H26.4902L28.9846 27.2959L39.9899 21.5041L38.6831 18.0876C38.6166 17.9136 38.5867 17.7278 38.5953 17.5417C38.6038 17.3556 38.6507 17.1733 38.7329 17.0062C38.8152 16.8391 38.931 16.6907 39.0732 16.5704C39.2154 16.45 39.3808 16.3603 39.5593 16.3069L47.626 13.887L48.4047 16.4802ZM29.9041 29.8729L32.5745 37.3479L38.3026 25.4529L29.9041 29.8729ZM47.4852 41.1084L44.6238 33.6239C42.8692 34.6591 41.5675 36.3157 40.9767 38.2654C40.3858 40.2151 40.549 42.3156 41.4338 44.1507C42.3187 45.9858 43.8606 47.4215 45.754 48.1733C47.6475 48.9251 49.7543 48.9382 51.6569 48.2099C53.5596 47.4817 55.1192 46.0652 56.0267 44.2413C56.9343 42.4174 57.1235 40.319 56.5569 38.3621C55.9903 36.4053 54.7093 34.7326 52.9676 33.6757C51.226 32.6188 49.1508 32.2548 47.1534 32.6557L50.0148 40.1415C50.1372 40.4757 50.1231 40.8446 49.9757 41.1685C49.8282 41.4924 49.5591 41.7452 49.2267 41.8722C48.8943 41.9993 48.5252 41.9904 48.1993 41.8474C47.8734 41.7045 47.6169 41.439 47.4852 41.1084ZM24.2626 39.2708H16.25C15.8908 39.2708 15.5464 39.4135 15.2925 39.6674C15.0385 39.9214 14.8958 40.2658 14.8958 40.625C14.8958 40.9841 15.0385 41.3286 15.2925 41.5825C15.5464 41.8365 15.8908 41.9791 16.25 41.9791H24.2626C23.9176 43.9834 22.8338 45.7855 21.2251 47.0297C19.6164 48.2739 17.5996 48.8698 15.573 48.6998C13.5464 48.5297 11.6572 47.606 10.2783 46.1111C8.89945 44.6162 8.13111 42.6587 8.12499 40.625C8.12313 38.5864 8.88765 36.6217 10.2669 35.1205C11.6461 33.6193 13.5392 32.6915 15.5706 32.521C17.602 32.3506 19.6233 32.9499 21.2333 34.2003C22.8434 35.4506 23.9247 37.2605 24.2626 39.2708Z" fill="black"/>
</svg> -->
<svg width="60" height="60" viewBox="0 0 60 60" fill="none" xmlns="http://www.w3.org/2000/svg">
<path d="M52.51 19.9375V15C52.51 9.485 48.025 5 42.51 5H17.51C11.995 5 7.51 9.485 7.51 15V19.995L7.32 20.005C6.6895 20.0505 6.09965 20.3332 5.66919 20.7961C5.23873 21.259 4.99962 21.8679 5 22.5V27.5C5 28.163 5.26339 28.7989 5.73223 29.2678C6.20107 29.7366 6.83696 30 7.5 30H7.51V45C7.51 46.8375 8.5175 48.43 10 49.3V52.5C10 53.163 10.2634 53.7989 10.7322 54.2678C11.2011 54.7366 11.837 55 12.5 55H15C15.663 55 16.2989 54.7366 16.7678 54.2678C17.2366 53.7989 17.5 53.163 17.5 52.5V50H42.5V52.5C42.5 53.163 42.7634 53.7989 43.2322 54.2678C43.7011 54.7366 44.337 55 45 55H47.5C48.163 55 48.7989 54.7366 49.2678 54.2678C49.7366 53.7989 50 53.163 50 52.5V49.31C50.759 48.8741 51.3903 48.2467 51.8308 47.4903C52.2712 46.734 52.5055 45.8752 52.51 45V30C53.173 30 53.8089 29.7366 54.2778 29.2678C54.7466 28.7989 55.01 28.163 55.01 27.5V22.655C55.0393 22.267 54.9777 21.8775 54.83 21.5175C54.3225 20.3 53.2425 20.0075 52.51 19.9375ZM47.515 45H12.51V32.5H47.5125L47.515 45ZM27.51 17.5V27.5H12.51V17.5H27.51ZM47.51 17.5V27.5H32.51V17.5H47.51ZM17.51 10H42.51C44.35 10 45.9475 11.0125 46.815 12.5H13.205C14.0725 11.0125 15.67 10 17.51 10Z" fill="#323232"/>
<path d="M18.75 42.5C20.8211 42.5 22.5 40.8211 22.5 38.75C22.5 36.6789 20.8211 35 18.75 35C16.6789 35 15 36.6789 15 38.75C15 40.8211 16.6789 42.5 18.75 42.5Z" fill="#323232"/>
<path d="M41.25 42.5C43.3211 42.5 45 40.8211 45 38.75C45 36.6789 43.3211 35 41.25 35C39.1789 35 37.5 36.6789 37.5 38.75C37.5 40.8211 39.1789 42.5 41.25 42.5Z" fill="#323232"/>
</svg>
