<svg width="60" height="60" viewBox="0 0 60 60" fill="none" xmlns="http://www.w3.org/2000/svg">
<path d="M16.25 7.5C14.375 7.5 12.865 8.54167 11.72 10.625C10.575 12.7083 10.0017 15 10 17.5C10 20.125 10.365 22.4483 11.095 24.47C11.825 26.4917 12.5017 28.0017 13.125 29L20 27.625C20.5417 26.2917 21.0942 24.7708 21.6575 23.0625C22.2208 21.3542 22.5017 19.5 22.5 17.5C22.5 15 21.9275 12.7083 20.7825 10.625C19.6375 8.54167 18.1267 7.5 16.25 7.5ZM19.6875 40C20.4792 40 21.1458 39.7083 21.6875 39.125C22.2292 38.5417 22.5 37.7292 22.5 36.6875C22.5 35.9792 22.3333 35.25 22 34.5C21.6667 33.75 21.3333 33.0833 21 32.5L15 33.75C15 35.4167 15.365 36.875 16.095 38.125C16.825 39.375 18.0225 40 19.6875 40ZM43.75 20C41.875 20 40.365 21.0417 39.22 23.125C38.075 25.2083 37.5017 27.5 37.5 30C37.5 32 37.7817 33.8442 38.345 35.5325C38.9083 37.2208 39.46 38.7517 40 40.125L46.875 41.5C47.5 40.5 48.1775 39 48.9075 37C49.6375 35 50.0017 32.6667 50 30C50 27.5 49.4275 25.2083 48.2825 23.125C47.1375 21.0417 45.6267 20 43.75 20ZM40.3125 52.5C41.9792 52.5 43.1775 51.875 43.9075 50.625C44.6375 49.375 45.0017 47.9167 45 46.25L39 45C38.6667 45.5833 38.3333 46.25 38 47C37.6667 47.75 37.5 48.4792 37.5 49.1875C37.5 50.0208 37.7608 50.7817 38.2825 51.47C38.8042 52.1583 39.4808 52.5017 40.3125 52.5ZM19.6875 45C16.4792 45 14.0417 43.8125 12.375 41.4375C10.7083 39.0625 9.91667 36.3958 10 33.4375L8.875 31.75C8.41667 31.0417 7.65584 29.4375 6.5925 26.9375C5.52917 24.4375 4.99834 21.2917 5 17.5C5 13.2083 6.0625 9.635 8.1875 6.78C10.3125 3.925 13 2.49833 16.25 2.5C19.7917 2.5 22.5525 4.07333 24.5325 7.22C26.5125 10.3667 27.5017 13.7933 27.5 17.5C27.5 19.9167 27.1667 22.1458 26.5 24.1875C25.8333 26.2292 25.25 27.875 24.75 29.125L25.25 29.9375C25.5833 30.5208 26.0417 31.4483 26.625 32.72C27.2083 33.9917 27.5 35.3142 27.5 36.6875C27.5 39.0625 26.76 41.0417 25.28 42.625C23.8 44.2083 21.9342 45 19.6875 45ZM40.315 57.5C38.065 57.5 36.2 56.7083 34.72 55.125C33.24 53.5417 32.5 51.5625 32.5 49.1875C32.5 47.8125 32.7917 46.4892 33.375 45.2175C33.9583 43.9458 34.4167 43.0192 34.75 42.4375L35.25 41.625C34.75 40.375 34.1667 38.7292 33.5 36.6875C32.8333 34.6458 32.5 32.4167 32.5 30C32.5 26.2917 33.49 22.865 35.47 19.72C37.45 16.575 40.21 15.0017 43.75 15C47 15 49.6875 16.4275 51.8125 19.2825C53.9375 22.1375 55 25.71 55 30C55 33.7917 54.4683 36.9275 53.405 39.4075C52.3417 41.8875 51.5817 43.4808 51.125 44.1875L50 45.9375C50.0417 48.8958 49.24 51.5625 47.595 53.9375C45.95 56.3125 43.525 57.5 40.315 57.5Z" fill="#323232"/>
</svg>
