<!-- <svg width="60" height="40" viewBox="0 0 60 40" fill="none" xmlns="http://www.w3.org/2000/svg">
<path d="M54.8547 21.5232C53.5931 24.0799 51.8837 26.6271 50.1358 28.9142C48.4759 31.069 46.703 33.1343 44.8246 35.1015C42.9462 33.1343 41.1733 31.069 39.5134 28.9142C37.7655 26.6271 36.0561 24.0799 34.7945 21.5232C33.5184 18.9399 32.7865 16.5203 32.7865 14.4451C32.7865 11.2525 34.0548 8.19071 36.3124 5.93323C38.57 3.67575 41.6319 2.40751 44.8246 2.40751C48.0173 2.40751 51.0792 3.67575 53.3368 5.93323C55.5944 8.19071 56.8627 11.2525 56.8627 14.4451C56.8627 16.5203 56.1284 18.9399 54.8547 21.5232ZM44.8246 38.5202C44.8246 38.5202 59.2703 24.8311 59.2703 14.4451C59.2703 10.614 57.7483 6.93984 55.0392 4.23086C52.3302 1.52189 48.6558 0 44.8246 0C40.9934 0 37.319 1.52189 34.61 4.23086C31.9009 6.93984 30.3789 10.614 30.3789 14.4451C30.3789 24.8311 44.8246 38.5202 44.8246 38.5202Z" fill="#323232"/>
<path d="M44.8246 19.2601C43.5475 19.2601 42.3228 18.7528 41.4197 17.8498C40.5167 16.9468 40.0094 15.7221 40.0094 14.4451C40.0094 13.168 40.5167 11.9433 41.4197 11.0403C42.3228 10.1373 43.5475 9.63005 44.8246 9.63005C46.1017 9.63005 47.3265 10.1373 48.2295 11.0403C49.1325 11.9433 49.6399 13.168 49.6399 14.4451C49.6399 15.7221 49.1325 16.9468 48.2295 17.8498C47.3265 18.7528 46.1017 19.2601 44.8246 19.2601ZM44.8246 21.6676C46.7402 21.6676 48.5774 20.9067 49.9319 19.5522C51.2865 18.1977 52.0475 16.3606 52.0475 14.4451C52.0475 12.5295 51.2865 10.6925 49.9319 9.33797C48.5774 7.98348 46.7402 7.22253 44.8246 7.22253C42.909 7.22253 41.0718 7.98348 39.7173 9.33797C38.3628 10.6925 37.6018 12.5295 37.6018 14.4451C37.6018 16.3606 38.3628 18.1977 39.7173 19.5522C41.0718 20.9067 42.909 21.6676 44.8246 21.6676Z" fill="#323232"/>
<path d="M16.3748 33.4952C20.0472 33.1371 23.4516 31.4678 25.9272 28.8115C28.4028 26.1551 29.7732 22.701 29.7724 19.1195C29.7724 13.0179 26.0787 8.20287 22.6112 5.0134C20.6625 3.23392 18.5171 1.66885 16.2141 0.346682C16.0212 0.237219 15.8267 0.130633 15.6305 0.026964L15.5948 0.00770391L15.5829 0.00192582C15.5829 0.00192582 15.5769 0 14.8862 1.27887L14.1975 0H14.1935L14.1915 0.00192582L14.1796 0.00770391L14.1439 0.026964C13.9468 0.128968 13.7522 0.235572 13.5603 0.346682C11.2573 1.66885 9.11195 3.23392 7.16325 5.0134C3.69575 8.20287 4.67746e-08 13.0179 4.67746e-08 19.1195C-0.000292353 22.7007 1.37032 26.1543 3.84591 28.8103C6.32149 31.4662 9.72554 33.1352 13.3976 33.4933V36.9312C13.3976 37.3143 13.5544 37.6818 13.8336 37.9526C14.1128 38.2235 14.4914 38.3757 14.8862 38.3757C15.281 38.3757 15.6597 38.2235 15.9388 37.9526C16.218 37.6818 16.3748 37.3143 16.3748 36.9312V33.4952ZM16.3748 30.587V26.4037L22.1249 22.5574C22.4499 22.3398 22.6726 22.0058 22.7439 21.6289C22.8152 21.252 22.7292 20.8631 22.505 20.5476C22.2807 20.2322 21.9365 20.0161 21.5481 19.947C21.1597 19.8778 20.7589 19.9612 20.4338 20.1788L16.3748 22.8945V17.311L20.9082 14.0194C21.2116 13.7855 21.4091 13.4461 21.4587 13.0731C21.5083 12.7002 21.406 12.3232 21.1737 12.0222C20.9413 11.7213 20.5972 11.5201 20.2144 11.4615C19.8317 11.4028 19.4404 11.4914 19.1238 11.7082L16.3748 13.7036V9.45863C16.3748 9.26894 16.3363 9.0811 16.2615 8.90584C16.1867 8.73059 16.0771 8.57135 15.9388 8.43721C15.8006 8.30308 15.6365 8.19667 15.4559 8.12408C15.2753 8.05149 15.0817 8.01413 14.8862 8.01413C14.6907 8.01413 14.4972 8.05149 14.3165 8.12408C14.1359 8.19667 13.9718 8.30308 13.8336 8.43721C13.6954 8.57135 13.5857 8.73059 13.5109 8.90584C13.4361 9.0811 13.3976 9.26894 13.3976 9.45863V13.7036L10.6526 11.7082C10.336 11.4914 9.94474 11.4028 9.56196 11.4615C9.17918 11.5201 8.83506 11.7213 8.60271 12.0222C8.37036 12.3232 8.26812 12.7002 8.3177 13.0731C8.36727 13.4461 8.56477 13.7855 8.86821 14.0194L13.3996 17.3129V22.8964L9.3406 20.1807C9.01556 19.9799 8.62294 19.9092 8.2453 19.9835C7.86765 20.0578 7.53442 20.2713 7.31566 20.5792C7.0969 20.887 7.00967 21.2651 7.0723 21.634C7.13494 22.003 7.34256 22.334 7.65152 22.5574L13.3996 26.4056V30.587C10.5217 30.2351 7.87503 28.8761 5.95643 26.7651C4.03783 24.6541 2.9792 21.9361 2.97923 19.1214C2.97923 14.1889 5.98227 10.0846 9.21357 7.11275C10.947 5.53022 12.85 4.13231 14.8902 2.94294C16.9303 4.13231 18.8334 5.53022 20.5668 7.11275C23.7961 10.0846 26.7992 14.1889 26.7992 19.1214C26.7992 21.9361 25.7406 24.6541 23.822 26.7651C21.9034 28.8761 19.2567 30.2351 16.3788 30.587" fill="#323232"/>
<path fill-rule="evenodd" clip-rule="evenodd" d="M0.289734 39.0438C0.289734 38.7902 0.455283 38.547 0.749964 38.3677C1.04464 38.1884 1.44432 38.0876 1.86106 38.0876H58.4287C58.8454 38.0876 59.2451 38.1884 59.5398 38.3677C59.8345 38.547 60 38.7902 60 39.0438C60 39.2974 59.8345 39.5406 59.5398 39.7199C59.2451 39.8993 58.8454 40 58.4287 40H1.86106C1.44432 40 1.04464 39.8993 0.749964 39.7199C0.455283 39.5406 0.289734 39.2974 0.289734 39.0438Z" fill="#323232"/>
</svg> -->
<svg width="80" height="80" viewBox="0 0 80 80" fill="none" xmlns="http://www.w3.org/2000/svg">
<path d="M51.03 9.16664L51.9767 6.85331C51.368 6.60326 50.6853 6.60326 50.0767 6.85331L51.03 9.16664Z" fill="#323232"/>
<path d="M51.03 9.16667L50.08 6.85333H50.0767L50.07 6.85667L50.0567 6.86333L50.0233 6.87667L49.91 6.92667L49.5433 7.09333C47.7869 7.95394 46.1572 9.052 44.7 10.3567C42.0533 12.7433 39.22 16.6 39.22 22.1033C39.22 28.8367 44.34 34.61 51.03 34.61C57.7167 34.61 62.8367 28.8367 62.8367 22.1033C62.8367 16.6033 60.0033 12.7433 57.3567 10.3567C55.8984 9.05175 54.2676 7.95368 52.51 7.09333L52.1433 6.92667L52.0333 6.87667L52 6.86333L51.9867 6.85667H51.98L51.03 9.16667ZM54.01 14.0733C56.0167 15.8767 57.8367 18.4867 57.8367 22.1033C57.8367 25.3767 55.99 28.0033 53.53 29.08V20.3533C53.53 19.6903 53.2666 19.0544 52.7978 18.5856C52.3289 18.1167 51.693 17.8533 51.03 17.8533C50.367 17.8533 49.7311 18.1167 49.2622 18.5856C48.7934 19.0544 48.53 19.6903 48.53 20.3533V29.08C46.07 28.0033 44.22 25.38 44.22 22.1033C44.22 18.4867 46.0433 15.8767 48.0467 14.0733C48.9604 13.2605 49.9609 12.5506 51.03 11.9567L51.24 12.0733C52 12.51 53.0067 13.1733 54.01 14.0733ZM64.7567 36.9467C65.7644 36.1281 67.0394 35.7112 68.3361 35.7761C69.6328 35.8411 70.8596 36.3833 71.7806 37.2984C72.7015 38.2136 73.2515 39.437 73.3246 40.7333C73.3977 42.0296 72.9888 43.3071 72.1767 44.32L59.2867 60.4167C58.6684 61.1874 57.885 61.8094 56.9942 62.2369C56.1034 62.6644 55.128 62.8864 54.14 62.8867H33.56C32.9403 62.887 32.3427 63.1174 31.8833 63.5333L30.1333 65.1167C30.3062 65.6601 30.288 66.2463 30.0819 66.7781C29.8757 67.3098 29.494 67.7551 29 68.04L20.4133 72.9967C20.129 73.1611 19.8151 73.268 19.4895 73.3111C19.1639 73.3542 18.8331 73.3327 18.5158 73.2479C18.1985 73.1631 17.901 73.0166 17.6403 72.8168C17.3797 72.6169 17.161 72.3677 16.9967 72.0833L7.00333 54.7667C6.83886 54.4824 6.73201 54.1685 6.6889 53.8429C6.64579 53.5173 6.66725 53.1864 6.75207 52.8691C6.83689 52.5518 6.9834 52.2543 7.18322 51.9937C7.38305 51.733 7.63228 51.5143 7.91666 51.35L16.5067 46.3933C16.8828 46.1762 17.3089 46.0608 17.7432 46.0584C18.1775 46.0561 18.6049 46.1669 18.9833 46.38L24.6267 41.87C26.47 40.3967 28.8033 39.38 31.3767 39.37C34.0867 39.3567 38.3733 39.5967 42.25 41.01H50.91C53.1167 41.01 55.04 42.21 56.07 43.9867L64.7567 36.9467ZM28.53 59.8267C29.9091 58.5781 31.703 57.8867 33.5633 57.8867H54.14C54.3786 57.8862 54.6141 57.8324 54.8293 57.7292C55.0444 57.6259 55.2337 57.4759 55.3833 57.29L68.2733 41.1933C68.3123 41.1431 68.3315 41.0804 68.3273 41.0171C68.3232 40.9537 68.296 40.894 68.2509 40.8493C68.2058 40.8046 68.1459 40.7779 68.0824 40.7744C68.019 40.7708 67.9565 40.7906 67.9067 40.83L55.0667 51.24C53.9558 52.3257 52.4634 52.9325 50.91 52.93H41.7933C41.1303 52.93 40.4944 52.6666 40.0256 52.1978C39.5567 51.7289 39.2933 51.093 39.2933 50.43C39.2933 49.767 39.5567 49.1311 40.0256 48.6622C40.4944 48.1934 41.1303 47.93 41.7933 47.93H50.91C51.0656 47.93 51.21 47.8967 51.3433 47.83L51.4233 47.76L51.6667 47.56C51.7771 47.4182 51.8456 47.2483 51.8642 47.0695C51.8828 46.8908 51.8509 46.7104 51.7721 46.5489C51.6932 46.3873 51.5706 46.2512 51.4182 46.156C51.2658 46.0607 51.0897 46.0101 50.91 46.01H41.97C41.5322 46.01 41.1222 45.9356 40.74 45.7867C37.6533 44.61 33.9633 44.36 31.4 44.37C30.1533 44.3767 28.8833 44.87 27.7467 45.78L21.7867 50.5467L27.62 60.6467L28.53 59.8267ZM12.5833 54.4333L20.0767 67.4167L24.3367 64.9567L16.84 51.9767L12.5833 54.4333Z" fill="#323232"/>
</svg>
