<svg width="24" height="24" viewBox="0 0 24 24" fill="none" xmlns="http://www.w3.org/2000/svg">
<path d="M14.4 3.42857H16.8C17.0122 3.42857 17.2157 3.33827 17.3657 3.17752C17.5157 3.01677 17.6 2.79876 17.6 2.57143C17.6 2.3441 17.6843 2.12608 17.8343 1.96534C17.9843 1.80459 18.1878 1.71429 18.4 1.71429C18.6122 1.71429 18.8157 1.80459 18.9657 1.96534C19.1157 2.12608 19.2 2.3441 19.2 2.57143C19.2 3.25341 18.9471 3.90747 18.4971 4.3897C18.047 4.87194 17.4365 5.14286 16.8 5.14286H14.4C14.1878 5.14286 13.9843 5.23316 13.8343 5.39391C13.6843 5.55465 13.6 5.77267 13.6 6C13.6 6.22733 13.5157 6.44535 13.3657 6.60609C13.2157 6.76684 13.0122 6.85714 12.8 6.85714C12.5878 6.85714 12.3843 6.76684 12.2343 6.60609C12.0843 6.44535 12 6.22733 12 6C12 5.31801 12.2529 4.66396 12.7029 4.18173C13.153 3.69949 13.7635 3.42857 14.4 3.42857ZM9.6 6.85714C9.81217 6.85714 10.0157 6.76684 10.1657 6.60609C10.3157 6.44535 10.4 6.22733 10.4 6C10.4 4.86336 10.8214 3.77327 11.5716 2.96954C12.3217 2.16582 13.3391 1.71429 14.4 1.71429H15.2C15.4122 1.71429 15.6157 1.62398 15.7657 1.46323C15.9157 1.30249 16 1.08447 16 0.857143C16 0.629814 15.9157 0.411797 15.7657 0.251051C15.6157 0.0903059 15.4122 0 15.2 0L14.4 0C12.9153 0.00170167 11.4918 0.634389 10.442 1.75924C9.3921 2.88409 8.80159 4.40922 8.8 6C8.8 6.22733 8.88429 6.44535 9.03431 6.60609C9.18434 6.76684 9.38783 6.85714 9.6 6.85714ZM24 23.1429C24 23.3702 23.9157 23.5882 23.7657 23.7489C23.6157 23.9097 23.4122 24 23.2 24H0.8C0.587827 24 0.384344 23.9097 0.234315 23.7489C0.0842854 23.5882 0 23.3702 0 23.1429C0 22.9155 0.0842854 22.6975 0.234315 22.5368C0.384344 22.376 0.587827 22.2857 0.8 22.2857H2.474C3.851 19.3039 5.422 14.9261 5.586 10.215C5.60081 9.77208 5.77605 9.35276 6.07455 9.04594C6.37305 8.73911 6.77135 8.56892 7.185 8.57143H16.018C16.4302 8.57098 16.8266 8.74097 17.1247 9.04596C17.4227 9.35095 17.5995 9.76742 17.618 10.2086C17.828 15.3343 20.002 20.1054 21.147 22.2857H23.2C23.4122 22.2857 23.6157 22.376 23.7657 22.5368C23.9157 22.6975 24 22.9155 24 23.1429ZM16.018 10.2857H14.418C14.595 14.97 16.157 19.32 17.527 22.2857H19.327C18.068 19.7229 16.218 15.1757 16.018 10.2857ZM4.25 22.2857H15.75C14.4 19.1882 12.977 14.9025 12.815 10.2857C12.7816 10.286 12.7482 10.2838 12.715 10.2793L7.185 10.2857C7.024 14.8993 5.606 19.1861 4.25 22.2857Z" fill="#fff"/>
</svg>
