<svg width="60" height="60" viewBox="0 0 60 60" fill="none" xmlns="http://www.w3.org/2000/svg">
<path d="M22.7575 50.686C22.7575 51.5092 22.4304 52.2986 21.8483 52.8807C21.2662 53.4627 20.4767 53.7897 19.6535 53.7897H7.23771C5.96679 53.7889 4.71846 53.4536 3.61813 52.8177C2.5178 52.1817 1.6042 51.2674 0.969107 50.1666C0.334014 49.0658 -0.00021243 47.8173 1.01297e-07 46.5465C0.000212633 45.2756 0.334857 44.0272 0.970318 42.9266L8.58793 29.7668L7.35669 30.0953C6.95999 30.2103 6.54432 30.2449 6.13405 30.1972C5.72379 30.1495 5.32717 30.0203 4.96744 29.8174C4.60772 29.6145 4.29211 29.3418 4.03912 29.0153C3.78614 28.6888 3.60085 28.3152 3.49413 27.9162C3.38741 27.5172 3.36139 27.1009 3.41761 26.6918C3.47382 26.2826 3.61114 25.8888 3.82151 25.5334C4.03188 25.178 4.31108 24.8681 4.64274 24.622C4.9744 24.3758 5.35185 24.1983 5.75299 24.0999L14.2294 21.8316C15.0241 21.619 15.8707 21.7306 16.5832 22.1419C17.2957 22.5532 17.8157 23.2304 18.0291 24.0249L20.3027 32.5007C20.4217 32.8983 20.4596 33.3157 20.4144 33.7282C20.3692 34.1407 20.2417 34.54 20.0395 34.9024C19.8373 35.2648 19.5644 35.5829 19.2371 35.838C18.9097 36.0932 18.5345 36.28 18.1337 36.3876C17.7329 36.4952 17.3145 36.5214 16.9034 36.4645C16.4923 36.4076 16.0968 36.2688 15.7403 36.0564C15.3837 35.844 15.0734 35.5623 14.8277 35.2279C14.5819 34.8934 14.4057 34.5131 14.3095 34.1095L13.9836 32.8395L6.35308 46.0304C6.26274 46.1868 6.21494 46.3642 6.21443 46.5448C6.21393 46.7255 6.26074 46.9031 6.3502 47.0601C6.43966 47.217 6.56867 47.3478 6.72437 47.4394C6.88008 47.531 7.05706 47.5803 7.23771 47.5823H19.6535C20.4767 47.5823 21.2662 47.9093 21.8483 48.4913C22.4304 49.0734 22.7575 49.8628 22.7575 50.686ZM30 6.1991C30.1821 6.19574 30.3617 6.24214 30.5194 6.33329C30.6771 6.42445 30.807 6.5569 30.895 6.71639L38.5126 19.8737L37.2839 19.5452C36.885 19.4237 36.4657 19.3838 36.0511 19.4279C35.6364 19.4721 35.2349 19.5993 34.8705 19.802C34.5061 20.0047 34.1863 20.2788 33.9302 20.6078C33.6741 20.9369 33.4869 21.3141 33.3798 21.7171C33.2727 22.1201 33.2479 22.5405 33.3068 22.9533C33.3658 23.3661 33.5074 23.7627 33.7231 24.1196C33.9388 24.4764 34.2241 24.7862 34.5622 25.0303C34.9002 25.2745 35.284 25.448 35.6906 25.5406L44.1669 27.814C44.9617 28.0266 45.8083 27.915 46.5208 27.5037C47.2332 27.0925 47.7533 26.4152 47.9667 25.6207L50.2274 17.1398C50.4407 16.3441 50.3292 15.4962 49.9174 14.7827C49.5056 14.0691 48.8271 13.5484 48.0314 13.3351C47.2356 13.1218 46.3876 13.2333 45.6741 13.6451C44.9605 14.0569 44.4398 14.7353 44.2264 15.531L43.8876 16.788L36.2674 3.61266C35.6311 2.51399 34.7171 1.6019 33.6171 0.967835C32.5171 0.333766 31.2697 0 30 0C28.7303 0 27.4829 0.333766 26.3829 0.967835C25.2829 1.6019 24.3689 2.51399 23.7326 3.61266L17.742 13.9584C17.5222 14.3118 17.3758 14.7056 17.3113 15.1167C17.2468 15.5277 17.2657 15.9476 17.3667 16.3512C17.4678 16.7548 17.6489 17.134 17.8994 17.4662C18.1499 17.7984 18.4647 18.0769 18.825 18.285C19.1853 18.4931 19.5837 18.6267 19.9967 18.6778C20.4096 18.7289 20.8287 18.6964 21.2288 18.5824C21.629 18.4683 22.0021 18.2749 22.326 18.0138C22.6499 17.7526 22.9181 17.429 23.1144 17.0622L29.105 6.71639C29.193 6.5569 29.3229 6.42445 29.4806 6.33329C29.6383 6.24214 29.8179 6.19574 30 6.1991ZM59.0193 42.9266L53.0339 32.5809C52.8375 32.214 52.5694 31.8904 52.2455 31.6293C51.9216 31.3681 51.5484 31.1748 51.1483 31.0607C50.7481 30.9466 50.3291 30.9141 49.9162 30.9652C49.5032 31.0163 49.1048 31.1499 48.7445 31.358C48.3842 31.5662 48.0694 31.8446 47.8189 32.1769C47.5684 32.5091 47.3872 32.8883 47.2862 33.2919C47.1852 33.6955 47.1663 34.1153 47.2308 34.5263C47.2953 34.9374 47.4417 35.3313 47.6615 35.6846L53.6469 46.0304C53.7377 46.1876 53.7855 46.3659 53.7855 46.5474C53.7856 46.7289 53.7379 46.9073 53.6472 47.0645C53.5565 47.2218 53.426 47.3524 53.2689 47.4433C53.1118 47.5341 52.9335 47.5821 52.7519 47.5823H37.5012L38.4091 46.6744C38.6978 46.3857 38.9269 46.043 39.0831 45.6657C39.2394 45.2885 39.3198 44.8842 39.3198 44.4759C39.3198 44.0676 39.2394 43.6633 39.0831 43.2861C38.9269 42.9089 38.6978 42.5662 38.4091 42.2775C38.1204 41.9887 37.7776 41.7597 37.4004 41.6035C37.0231 41.4472 36.6188 41.3668 36.2105 41.3668C35.8022 41.3668 35.3978 41.4472 35.0206 41.6035C34.6434 41.7597 34.3006 41.9887 34.0119 42.2775L27.804 48.4849C27.5146 48.7733 27.285 49.1159 27.1283 49.4932C26.9717 49.8704 26.891 50.2749 26.891 50.6834C26.891 51.0919 26.9717 51.4964 27.1283 51.8736C27.285 52.2509 27.5146 52.5935 27.804 52.8819L34.0119 59.0894C34.3006 59.3781 34.6434 59.6071 35.0206 59.7633C35.3978 59.9196 35.8022 60 36.2105 60C36.6188 60 37.0231 59.9196 37.4004 59.7633C37.7776 59.6071 38.1204 59.3781 38.4091 59.0894C38.6978 58.8006 38.9269 58.4579 39.0831 58.0807C39.2394 57.7035 39.3198 57.2992 39.3198 56.8909C39.3198 56.4826 39.2394 56.0783 39.0831 55.7011C38.9269 55.3239 38.6978 54.9811 38.4091 54.6924L37.5012 53.7897H52.7623C54.0332 53.7889 55.2815 53.4536 56.3819 52.8177C57.4822 52.1817 58.3958 51.2674 59.0309 50.1666C59.666 49.0658 60.0002 47.8173 60 46.5465C59.9998 45.2756 59.6651 44.0272 59.0297 42.9266H59.0193Z" fill="#323232"/>
</svg>
