<svg width="60" height="60" viewBox="0 0 60 60" fill="none" xmlns="http://www.w3.org/2000/svg">
<path d="M49.5703 35.9019L49.4899 35.5H49.08H33H32.5V36V42V42.5H33H50.28H50.8899L50.7703 41.9019L49.5703 35.9019ZM27.5 36V35.5H27H10.92H10.5101L10.4297 35.9019L9.22971 41.9019L9.1101 42.5H9.72H27H27.5V42V36ZM8.52 47.5H8.1101L8.02971 47.9019L6.82971 53.9019L6.7101 54.5H7.32H27H27.5V54V48V47.5H27H8.52ZM32.5 54V54.5H33H52.68H53.2899L53.1703 53.9019L51.9703 47.9019L51.8899 47.5H51.48H33H32.5V48V54ZM0.609902 59.5L6.4099 30.5H53.5901L59.3901 59.5H0.609902ZM32.5 18.5V26.5H27.5V18.5H32.5ZM51.1941 17.7312L47.6679 21.2825L41.9879 15.6292L45.54 12.0771L51.1941 17.7312ZM8.83586 17.7312L14.4887 12.0784L18.0141 15.6288L12.3613 21.2816L8.83586 17.7312ZM3.5 0.5H11.5V5.5H3.5V0.5ZM48.5 0.5H56.5V5.5H48.5V0.5ZM39.4869 0.5H44.4915C44.2277 8.27265 37.8365 14.5 30 14.5C22.1635 14.5 15.7723 8.27265 15.5085 0.5H20.5131C20.7752 5.496 24.9415 9.5 30 9.5C35.0585 9.5 39.2248 5.496 39.4869 0.5Z" fill="#323232" stroke="black"/>
</svg>
