<svg width="56" height="65" viewBox="0 0 56 65" fill="none" xmlns="http://www.w3.org/2000/svg">
<path fill-rule="evenodd" clip-rule="evenodd" d="M27.5882 3.42105C24.8259 3.42105 22.2897 4.49184 20.3328 6.29132C19.2378 7.30053 18.3265 8.53895 17.673 9.93816C17.4874 10.337 17.1512 10.6518 16.7333 10.8179C16.3155 10.9839 15.8478 10.9887 15.4264 10.8311C9.64406 10.4103 4.3456 14.8439 3.69212 21.2003C3.25059 25.545 5.12977 29.5476 8.21701 31.9013C8.56671 32.1682 8.78218 32.5342 8.85989 32.9242C9.02027 33.2737 9.05509 33.6652 8.95879 34.0361C8.62942 35.3005 8.52195 36.6097 8.64089 37.9087C9.13541 43.3961 14.5434 47.2379 19.4215 46.7589C21.3042 46.5742 22.6218 46.2732 23.6143 45.7155C24.5009 45.2161 25.2639 44.4361 25.8821 43.0129C25.9459 42.7776 26.0609 42.5583 26.2192 42.3694C26.3776 42.1806 26.5757 42.0267 26.8003 41.9179C27.025 41.8091 27.271 41.748 27.522 41.7386C27.773 41.7292 28.0231 41.7717 28.2558 41.8634C28.5127 41.9621 28.7421 42.1179 28.9255 42.3181C29.109 42.5184 29.2413 42.7575 29.3119 43.0163C29.9301 44.4361 30.6895 45.2161 31.5797 45.7155C32.5687 46.2732 33.8898 46.5742 35.769 46.7589C40.6471 47.2379 46.0551 43.3961 46.5496 37.9087C46.6685 36.6097 46.5611 35.3005 46.2317 34.0361C46.1357 33.6637 46.1718 33.2709 46.3341 32.9208C46.414 32.5177 46.641 32.1558 46.9735 31.9013C50.0642 29.5476 51.9434 25.545 51.4984 21.2003C50.8484 14.8371 45.5323 10.4 39.7464 10.8345C39.325 10.9908 38.8579 10.9851 38.4408 10.8184C38.0237 10.6517 37.6883 10.3368 37.5034 9.93816C36.8682 8.5676 35.965 7.32917 34.8435 6.29132C32.8987 4.46273 30.2987 3.43413 27.5882 3.42105ZM40.1279 7.38947C39.369 6.06452 38.408 4.85812 37.2773 3.81105C34.6758 1.37826 31.2044 0.0128738 27.5882 0C23.9719 0.0128738 20.5006 1.37826 17.8991 3.81105C16.7793 4.84079 15.815 6.04842 15.0485 7.38605C7.41871 7.16711 0.972248 13.1026 0.177479 20.8684C-0.352367 26.0342 1.71403 30.9058 5.34171 34.0326C5.06987 35.4074 4.99735 36.8122 5.12624 38.2063C5.79738 45.6676 13.0174 50.83 19.7782 50.1663C21.7987 49.9679 23.7274 49.6087 25.384 48.6782C26.2294 48.2061 26.9665 47.6017 27.5952 46.865C28.2287 47.6017 28.9658 48.2061 29.8065 48.6782C31.4667 49.6087 33.3953 49.9679 35.4158 50.1663C42.1766 50.83 49.3966 45.6676 50.0678 38.2097C50.1955 36.8154 50.1218 35.4107 49.8488 34.0361C53.4765 30.9058 55.5429 26.0342 55.013 20.865C54.2182 13.0958 47.7612 7.16368 40.1279 7.38947Z" fill="#323232"/>
<path fill-rule="evenodd" clip-rule="evenodd" d="M38.2875 24.7787C38.4068 24.9714 38.4857 25.185 38.5197 25.4072C38.5537 25.6295 38.5421 25.8561 38.4857 26.074C38.4293 26.2919 38.3291 26.497 38.1908 26.6774C38.0526 26.8578 37.879 27.0101 37.68 27.1255L29.7075 31.7576V63.2895C29.7075 63.7431 29.5215 64.1782 29.1903 64.499C28.859 64.8198 28.4098 65 27.9414 65C27.473 65 27.0237 64.8198 26.6925 64.499C26.3613 64.1782 26.1752 63.7431 26.1752 63.2895V40.3103L18.2028 35.6816C17.8009 35.4484 17.5111 35.0701 17.3972 34.63C17.2832 34.1899 17.3545 33.724 17.5953 33.3347C17.836 32.9455 18.2266 32.6648 18.681 32.5545C19.1354 32.4441 19.6165 32.5131 20.0184 32.7463L26.1752 36.3247V18.8158C26.1752 18.3621 26.3613 17.9271 26.6925 17.6063C27.0237 17.2855 27.473 17.1053 27.9414 17.1053C28.4098 17.1053 28.859 17.2855 29.1903 17.6063C29.5215 17.9271 29.7075 18.3621 29.7075 18.8158V27.7687L35.8644 24.1903C36.0633 24.0748 36.2839 23.9984 36.5134 23.9654C36.7428 23.9325 36.9768 23.9437 37.2018 23.9983C37.4268 24.0529 37.6385 24.15 37.8248 24.2839C38.0111 24.4178 38.1683 24.5859 38.2875 24.7787Z" fill="#323232"/>
</svg>

